<?xml version="1.0" encoding="UTF-8" standalone="yes"?><svg xmlns="http://www.w3.org/2000/svg" xmlns:xlink="http://www.w3.org/1999/xlink" height="840px" style="width:827px;height:840px;" version="1.1" viewBox="0 0 827 840" width="827px"><defs><filter height="300%" id="f1" width="300%" x="-1" y="-1"><feGaussianBlur result="blurOut" stdDeviation="2.0"/><feColorMatrix in="blurOut" result="blurOut2" type="matrix" values="0 0 0 0 0 0 0 0 0 0 0 0 0 0 0 0 0 0 .4 0"/><feOffset dx="4.0" dy="4.0" in="blurOut2" result="blurOut3"/><feBlend in="SourceGraphic" in2="blurOut3" mode="normal"/></filter></defs><g><text fill="#000000" font-family="sans-serif" font-size="14" lengthAdjust="spacingAndGlyphs" textLength="44" x="229" y="79.9951">Notary</text><ellipse cx="254" cy="10" fill="#FEFECE" filter="url(#f1)" rx="8" ry="8" style="stroke: #A80036; stroke-width: 2.0;"/><path d="M254,18 L254,45 M241,26 L267,26 M254,45 L241,60 M254,45 L267,60 " fill="#FEFECE" filter="url(#f1)" style="stroke: #A80036; stroke-width: 2.0;"/><text fill="#000000" font-family="sans-serif" font-size="14" lengthAdjust="spacingAndGlyphs" textLength="45" x="279" y="79.9951">Dealer</text><ellipse cx="304.5" cy="10" fill="#FEFECE" filter="url(#f1)" rx="8" ry="8" style="stroke: #A80036; stroke-width: 2.0;"/><path d="M304.5,18 L304.5,45 M291.5,26 L317.5,26 M304.5,45 L291.5,60 M304.5,45 L317.5,60 " fill="#FEFECE" filter="url(#f1)" style="stroke: #A80036; stroke-width: 2.0;"/><text fill="#000000" font-family="sans-serif" font-size="14" lengthAdjust="spacingAndGlyphs" textLength="57" x="382" y="79.9951">PANGEA</text><path d="M395.5,35 C395.5,25 413.5,25 413.5,25 C413.5,25 431.5,25 431.5,35 L431.5,57 C431.5,67 413.5,67 413.5,67 C413.5,67 395.5,67 395.5,57 L395.5,35 " fill="#FEFECE" filter="url(#f1)" style="stroke: #A80036; stroke-width: 1.5;"/><path d="M395.5,35 C395.5,45 413.5,45 413.5,45 C413.5,45 431.5,45 431.5,35 " fill="none" style="stroke: #A80036; stroke-width: 1.5;"/><text fill="#000000" font-family="sans-serif" font-size="14" lengthAdjust="spacingAndGlyphs" textLength="32" x="445" y="79.9951">KMD</text><path d="M446,35 C446,25 464,25 464,25 C464,25 482,25 482,35 L482,57 C482,67 464,67 464,67 C464,67 446,67 446,57 L446,35 " fill="#FEFECE" filter="url(#f1)" style="stroke: #A80036; stroke-width: 1.5;"/><path d="M446,35 C446,45 464,45 464,45 C464,45 482,45 482,35 " fill="none" style="stroke: #A80036; stroke-width: 1.5;"/><text fill="#000000" font-family="sans-serif" font-size="14" lengthAdjust="spacingAndGlyphs" textLength="50" x="504" y="79.9951">Player1</text><ellipse cx="532" cy="10" fill="#FEFECE" filter="url(#f1)" rx="8" ry="8" style="stroke: #A80036; stroke-width: 2.0;"/><path d="M532,18 L532,45 M519,26 L545,26 M532,45 L519,60 M532,45 L545,60 " fill="#FEFECE" filter="url(#f1)" style="stroke: #A80036; stroke-width: 2.0;"/><text fill="#000000" font-family="sans-serif" font-size="14" lengthAdjust="spacingAndGlyphs" textLength="50" x="560" y="79.9951">Player2</text><ellipse cx="588" cy="10" fill="#FEFECE" filter="url(#f1)" rx="8" ry="8" style="stroke: #A80036; stroke-width: 2.0;"/><path d="M588,18 L588,45 M575,26 L601,26 M588,45 L575,60 M588,45 L601,60 " fill="#FEFECE" filter="url(#f1)" style="stroke: #A80036; stroke-width: 2.0;"/><line style="stroke: #A80036; stroke-width: 1.0; stroke-dasharray: 5.0,5.0;" x1="254" x2="254" y1="83.2969" y2="759.6875"/><line style="stroke: #A80036; stroke-width: 1.0; stroke-dasharray: 5.0,5.0;" x1="304.5" x2="304.5" y1="83.2969" y2="759.6875"/><line style="stroke: #A80036; stroke-width: 1.0; stroke-dasharray: 5.0,5.0;" x1="413.5" x2="413.5" y1="83.2969" y2="759.6875"/><rect fill="#FFFFFF" filter="url(#f1)" height="167.6641" style="stroke: #A80036; stroke-width: 1.0;" width="10" x="408.5" y="221.6953"/><rect fill="#FFFFFF" filter="url(#f1)" height="156.5313" style="stroke: #A80036; stroke-width: 1.0;" width="10" x="408.5" y="520.7578"/><line style="stroke: #A80036; stroke-width: 1.0; stroke-dasharray: 5.0,5.0;" x1="464" x2="464" y1="83.2969" y2="759.6875"/><rect fill="#FFFFFF" filter="url(#f1)" height="187.6641" style="stroke: #A80036; stroke-width: 1.0;" width="10" x="459" y="147.4297"/><rect fill="#FFFFFF" filter="url(#f1)" height="244.7969" style="stroke: #A80036; stroke-width: 1.0;" width="10" x="459" y="471.625"/><line style="stroke: #A80036; stroke-width: 1.0; stroke-dasharray: 5.0,5.0;" x1="532" x2="532" y1="83.2969" y2="759.6875"/><line style="stroke: #A80036; stroke-width: 1.0; stroke-dasharray: 5.0,5.0;" x1="588" x2="588" y1="83.2969" y2="759.6875"/><text fill="#000000" font-family="sans-serif" font-size="14" lengthAdjust="spacingAndGlyphs" textLength="44" x="229" y="839.6826">Notary</text><ellipse cx="254" cy="769.6875" fill="#FEFECE" filter="url(#f1)" rx="8" ry="8" style="stroke: #A80036; stroke-width: 2.0;"/><path d="M254,777.6875 L254,804.6875 M241,785.6875 L267,785.6875 M254,804.6875 L241,819.6875 M254,804.6875 L267,819.6875 " fill="#FEFECE" filter="url(#f1)" style="stroke: #A80036; stroke-width: 2.0;"/><text fill="#000000" font-family="sans-serif" font-size="14" lengthAdjust="spacingAndGlyphs" textLength="45" x="279" y="839.6826">Dealer</text><ellipse cx="304.5" cy="769.6875" fill="#FEFECE" filter="url(#f1)" rx="8" ry="8" style="stroke: #A80036; stroke-width: 2.0;"/><path d="M304.5,777.6875 L304.5,804.6875 M291.5,785.6875 L317.5,785.6875 M304.5,804.6875 L291.5,819.6875 M304.5,804.6875 L317.5,819.6875 " fill="#FEFECE" filter="url(#f1)" style="stroke: #A80036; stroke-width: 2.0;"/><text fill="#000000" font-family="sans-serif" font-size="14" lengthAdjust="spacingAndGlyphs" textLength="57" x="382" y="814.6826">PANGEA</text><path d="M395.5,769.6875 C395.5,759.6875 413.5,759.6875 413.5,759.6875 C413.5,759.6875 431.5,759.6875 431.5,769.6875 L431.5,791.6875 C431.5,801.6875 413.5,801.6875 413.5,801.6875 C413.5,801.6875 395.5,801.6875 395.5,791.6875 L395.5,769.6875 " fill="#FEFECE" filter="url(#f1)" style="stroke: #A80036; stroke-width: 1.5;"/><path d="M395.5,769.6875 C395.5,779.6875 413.5,779.6875 413.5,779.6875 C413.5,779.6875 431.5,779.6875 431.5,769.6875 " fill="none" style="stroke: #A80036; stroke-width: 1.5;"/><text fill="#000000" font-family="sans-serif" font-size="14" lengthAdjust="spacingAndGlyphs" textLength="32" x="445" y="814.6826">KMD</text><path d="M446,769.6875 C446,759.6875 464,759.6875 464,759.6875 C464,759.6875 482,759.6875 482,769.6875 L482,791.6875 C482,801.6875 464,801.6875 464,801.6875 C464,801.6875 446,801.6875 446,791.6875 L446,769.6875 " fill="#FEFECE" filter="url(#f1)" style="stroke: #A80036; stroke-width: 1.5;"/><path d="M446,769.6875 C446,779.6875 464,779.6875 464,779.6875 C464,779.6875 482,779.6875 482,769.6875 " fill="none" style="stroke: #A80036; stroke-width: 1.5;"/><text fill="#000000" font-family="sans-serif" font-size="14" lengthAdjust="spacingAndGlyphs" textLength="50" x="504" y="839.6826">Player1</text><ellipse cx="532" cy="769.6875" fill="#FEFECE" filter="url(#f1)" rx="8" ry="8" style="stroke: #A80036; stroke-width: 2.0;"/><path d="M532,777.6875 L532,804.6875 M519,785.6875 L545,785.6875 M532,804.6875 L519,819.6875 M532,804.6875 L545,819.6875 " fill="#FEFECE" filter="url(#f1)" style="stroke: #A80036; stroke-width: 2.0;"/><text fill="#000000" font-family="sans-serif" font-size="14" lengthAdjust="spacingAndGlyphs" textLength="50" x="560" y="839.6826">Player2</text><ellipse cx="588" cy="769.6875" fill="#FEFECE" filter="url(#f1)" rx="8" ry="8" style="stroke: #A80036; stroke-width: 2.0;"/><path d="M588,777.6875 L588,804.6875 M575,785.6875 L601,785.6875 M588,804.6875 L575,819.6875 M588,804.6875 L601,819.6875 " fill="#FEFECE" filter="url(#f1)" style="stroke: #A80036; stroke-width: 2.0;"/><rect fill="#EEEEEE" filter="url(#f1)" height="3" style="stroke: #EEEEEE; stroke-width: 1.0;" width="593" x="229" y="103.8633"/><line style="stroke: #000000; stroke-width: 1.0;" x1="229" x2="822" y1="103.8633" y2="103.8633"/><line style="stroke: #000000; stroke-width: 1.0;" x1="229" x2="822" y1="106.8633" y2="106.8633"/><rect fill="#EEEEEE" filter="url(#f1)" height="23.1328" style="stroke: #000000; stroke-width: 2.0;" width="248" x="401.5" y="93.2969"/><text fill="#000000" font-family="sans-serif" font-size="13" font-weight="bold" lengthAdjust="spacingAndGlyphs" textLength="229" x="407.5" y="109.3638">When players play by the rules</text><polygon fill="#A80036" points="475,143.4297,465,147.4297,475,151.4297,471,147.4297" style="stroke: #A80036; stroke-width: 1.0;"/><line style="stroke: #A80036; stroke-width: 1.0;" x1="469" x2="531" y1="147.4297" y2="147.4297"/><text fill="#000000" font-family="sans-serif" font-size="13" lengthAdjust="spacingAndGlyphs" textLength="31" x="481" y="142.4966">Fund</text><polygon fill="#A80036" points="480,143.4297,470,147.4297,480,151.4297,476,147.4297" style="stroke: #A80036; stroke-width: 1.0;"/><line style="stroke: #A80036; stroke-width: 1.0;" x1="474" x2="587" y1="147.4297" y2="147.4297"/><polygon fill="#FBFB77" filter="url(#f1)" points="593,131.4297,593,171.4297,813,171.4297,813,141.4297,803,131.4297,593,131.4297" style="stroke: #A80036; stroke-width: 1.0;"/><line style="stroke: #A80036; stroke-width: 1.0;" x1="803" x2="803" y1="131.4297" y2="141.4297"/><line style="stroke: #A80036; stroke-width: 1.0;" x1="813" x2="803" y1="141.4297" y2="141.4297"/><text fill="#000000" font-family="sans-serif" font-size="13" lengthAdjust="spacingAndGlyphs" textLength="199" x="599" y="148.4966">Players create a transaction on</text><text fill="#000000" font-family="sans-serif" font-size="13" lengthAdjust="spacingAndGlyphs" textLength="187" x="599" y="163.6294">value chain to fund the game</text><polygon fill="#A80036" points="396.5,217.6953,406.5,221.6953,396.5,225.6953,400.5,221.6953" style="stroke: #A80036; stroke-width: 1.0;"/><line style="stroke: #A80036; stroke-width: 1.0;" x1="304.5" x2="402.5" y1="221.6953" y2="221.6953"/><text fill="#000000" font-family="sans-serif" font-size="13" lengthAdjust="spacingAndGlyphs" textLength="84" x="311.5" y="216.7622">OpenSession</text><polygon fill="#FBFB77" filter="url(#f1)" points="72.5,205.6953,72.5,245.6953,295.5,245.6953,295.5,215.6953,285.5,205.6953,72.5,205.6953" style="stroke: #A80036; stroke-width: 1.0;"/><line style="stroke: #A80036; stroke-width: 1.0;" x1="285.5" x2="285.5" y1="205.6953" y2="215.6953"/><line style="stroke: #A80036; stroke-width: 1.0;" x1="295.5" x2="285.5" y1="215.6953" y2="215.6953"/><text fill="#000000" font-family="sans-serif" font-size="13" lengthAdjust="spacingAndGlyphs" textLength="202" x="78.5" y="222.7622">Dealer creates a transaction on</text><text fill="#000000" font-family="sans-serif" font-size="13" lengthAdjust="spacingAndGlyphs" textLength="199" x="78.5" y="237.895">app chain to secure the payout</text><polygon fill="#A80036" points="315.5,291.9609,305.5,295.9609,315.5,299.9609,311.5,295.9609" style="stroke: #A80036; stroke-width: 1.0;"/><line style="stroke: #A80036; stroke-width: 1.0;" x1="309.5" x2="531" y1="295.9609" y2="295.9609"/><text fill="#000000" font-family="sans-serif" font-size="13" lengthAdjust="spacingAndGlyphs" textLength="30" x="321.5" y="291.0278">exec</text><polygon fill="#A80036" points="315.5,291.9609,305.5,295.9609,315.5,299.9609,311.5,295.9609" style="stroke: #A80036; stroke-width: 1.0;"/><line style="stroke: #A80036; stroke-width: 1.0;" x1="309.5" x2="587" y1="295.9609" y2="295.9609"/><polygon fill="#FBFB77" filter="url(#f1)" points="593,279.9609,593,304.9609,788,304.9609,788,289.9609,778,279.9609,593,279.9609" style="stroke: #A80036; stroke-width: 1.0;"/><line style="stroke: #A80036; stroke-width: 1.0;" x1="778" x2="778" y1="279.9609" y2="289.9609"/><line style="stroke: #A80036; stroke-width: 1.0;" x1="788" x2="778" y1="289.9609" y2="289.9609"/><text fill="#000000" font-family="sans-serif" font-size="13" lengthAdjust="spacingAndGlyphs" textLength="174" x="599" y="297.0278">Game is executed off chain</text><polygon fill="#A80036" points="480,331.0938,470,335.0938,480,339.0938,476,335.0938" style="stroke: #A80036; stroke-width: 1.0;"/><line style="stroke: #A80036; stroke-width: 1.0;" x1="474" x2="531" y1="335.0938" y2="335.0938"/><text fill="#000000" font-family="sans-serif" font-size="13" lengthAdjust="spacingAndGlyphs" textLength="44" x="486" y="330.1606">Payout</text><polygon fill="#A80036" points="480,331.0938,470,335.0938,480,339.0938,476,335.0938" style="stroke: #A80036; stroke-width: 1.0;"/><line style="stroke: #A80036; stroke-width: 1.0;" x1="474" x2="587" y1="335.0938" y2="335.0938"/><text fill="#000000" font-family="sans-serif" font-size="13" lengthAdjust="spacingAndGlyphs" textLength="44" x="486" y="330.1606">Payout</text><polygon fill="#A80036" points="447,331.0938,457,335.0938,447,339.0938,451,335.0938" style="stroke: #A80036; stroke-width: 1.0;"/><line style="stroke: #A80036; stroke-width: 1.0;" x1="304.5" x2="453" y1="335.0938" y2="335.0938"/><polygon fill="#FBFB77" filter="url(#f1)" points="60.5,319.0938,60.5,359.0938,295.5,359.0938,295.5,329.0938,285.5,319.0938,60.5,319.0938" style="stroke: #A80036; stroke-width: 1.0;"/><line style="stroke: #A80036; stroke-width: 1.0;" x1="285.5" x2="285.5" y1="319.0938" y2="329.0938"/><line style="stroke: #A80036; stroke-width: 1.0;" x1="295.5" x2="285.5" y1="329.0938" y2="329.0938"/><text fill="#000000" font-family="sans-serif" font-size="13" lengthAdjust="spacingAndGlyphs" textLength="204" x="66.5" y="336.1606">n/2+1 players plus dealer agree</text><text fill="#000000" font-family="sans-serif" font-size="13" lengthAdjust="spacingAndGlyphs" textLength="214" x="66.5" y="351.2935">on payout vector and close game</text><polygon fill="#A80036" points="396.5,385.3594,406.5,389.3594,396.5,393.3594,400.5,389.3594" style="stroke: #A80036; stroke-width: 1.0;"/><line style="stroke: #A80036; stroke-width: 1.0;" x1="304.5" x2="402.5" y1="389.3594" y2="389.3594"/><text fill="#000000" font-family="sans-serif" font-size="13" lengthAdjust="spacingAndGlyphs" textLength="85" x="311.5" y="384.4263">CloseSession</text><polygon fill="#FBFB77" filter="url(#f1)" points="138.5,373.3594,138.5,398.3594,295.5,398.3594,295.5,383.3594,285.5,373.3594,138.5,373.3594" style="stroke: #A80036; stroke-width: 1.0;"/><line style="stroke: #A80036; stroke-width: 1.0;" x1="285.5" x2="285.5" y1="373.3594" y2="383.3594"/><line style="stroke: #A80036; stroke-width: 1.0;" x1="295.5" x2="285.5" y1="383.3594" y2="383.3594"/><text fill="#000000" font-family="sans-serif" font-size="13" lengthAdjust="spacingAndGlyphs" textLength="136" x="144.5" y="390.4263">dealer closes session</text><rect fill="#EEEEEE" filter="url(#f1)" height="3" style="stroke: #EEEEEE; stroke-width: 1.0;" width="593" x="229" y="428.0586"/><line style="stroke: #000000; stroke-width: 1.0;" x1="229" x2="822" y1="428.0586" y2="428.0586"/><line style="stroke: #000000; stroke-width: 1.0;" x1="229" x2="822" y1="431.0586" y2="431.0586"/><rect fill="#EEEEEE" filter="url(#f1)" height="23.1328" style="stroke: #000000; stroke-width: 2.0;" width="214" x="418.5" y="417.4922"/><text fill="#000000" font-family="sans-serif" font-size="13" font-weight="bold" lengthAdjust="spacingAndGlyphs" textLength="195" x="424.5" y="433.5591">When n/2 players time out</text><polygon fill="#A80036" points="475,467.625,465,471.625,475,475.625,471,471.625" style="stroke: #A80036; stroke-width: 1.0;"/><line style="stroke: #A80036; stroke-width: 1.0;" x1="469" x2="531" y1="471.625" y2="471.625"/><text fill="#000000" font-family="sans-serif" font-size="13" lengthAdjust="spacingAndGlyphs" textLength="31" x="481" y="466.6919">Fund</text><polygon fill="#A80036" points="480,467.625,470,471.625,480,475.625,476,471.625" style="stroke: #A80036; stroke-width: 1.0;"/><line style="stroke: #A80036; stroke-width: 1.0;" x1="474" x2="587" y1="471.625" y2="471.625"/><polygon fill="#A80036" points="396.5,516.7578,406.5,520.7578,396.5,524.7578,400.5,520.7578" style="stroke: #A80036; stroke-width: 1.0;"/><line style="stroke: #A80036; stroke-width: 1.0;" x1="304.5" x2="402.5" y1="520.7578" y2="520.7578"/><text fill="#000000" font-family="sans-serif" font-size="13" lengthAdjust="spacingAndGlyphs" textLength="84" x="311.5" y="515.8247">OpenSession</text><polygon fill="#A80036" points="315.5,565.8906,305.5,569.8906,315.5,573.8906,311.5,569.8906" style="stroke: #A80036; stroke-width: 1.0;"/><line style="stroke: #A80036; stroke-width: 1.0;" x1="309.5" x2="531" y1="569.8906" y2="569.8906"/><text fill="#000000" font-family="sans-serif" font-size="13" lengthAdjust="spacingAndGlyphs" textLength="30" x="321.5" y="564.9575">exec</text><polygon fill="#A80036" points="315.5,565.8906,305.5,569.8906,315.5,573.8906,311.5,569.8906" style="stroke: #A80036; stroke-width: 1.0;"/><line style="stroke: #A80036; stroke-width: 1.0;" x1="309.5" x2="587" y1="569.8906" y2="569.8906"/><polygon fill="#A80036" points="429.5,595.0234,419.5,599.0234,429.5,603.0234,425.5,599.0234" style="stroke: #A80036; stroke-width: 1.0;"/><line style="stroke: #A80036; stroke-width: 1.0;" x1="423.5" x2="531" y1="599.0234" y2="599.0234"/><text fill="#000000" font-family="sans-serif" font-size="13" lengthAdjust="spacingAndGlyphs" textLength="49" x="435.5" y="594.0903">Dispute</text><polygon fill="#FBFB77" filter="url(#f1)" points="537,583.0234,537,608.0234,777,608.0234,777,593.0234,767,583.0234,537,583.0234" style="stroke: #A80036; stroke-width: 1.0;"/><line style="stroke: #A80036; stroke-width: 1.0;" x1="767" x2="767" y1="583.0234" y2="593.0234"/><line style="stroke: #A80036; stroke-width: 1.0;" x1="777" x2="767" y1="593.0234" y2="593.0234"/><text fill="#000000" font-family="sans-serif" font-size="13" lengthAdjust="spacingAndGlyphs" textLength="219" x="543" y="600.0903">Player posts dispute with evidence</text><polygon fill="#A80036" points="429.5,634.1563,419.5,638.1563,429.5,642.1563,425.5,638.1563" style="stroke: #A80036; stroke-width: 1.0;"/><line style="stroke: #A80036; stroke-width: 1.0;" x1="423.5" x2="587" y1="638.1563" y2="638.1563"/><text fill="#000000" font-family="sans-serif" font-size="13" lengthAdjust="spacingAndGlyphs" textLength="49" x="435.5" y="633.2231">Dispute</text><polygon fill="#A80036" points="396.5,634.1563,406.5,638.1563,396.5,642.1563,400.5,638.1563" style="stroke: #A80036; stroke-width: 1.0;"/><line style="stroke: #A80036; stroke-width: 1.0;" x1="304.5" x2="402.5" y1="638.1563" y2="638.1563"/><text fill="#000000" font-family="sans-serif" font-size="13" lengthAdjust="spacingAndGlyphs" textLength="49" x="311.5" y="633.2231">Dispute</text><polygon fill="#FBFB77" filter="url(#f1)" points="115.5,622.1563,115.5,647.1563,295.5,647.1563,295.5,632.1563,285.5,622.1563,115.5,622.1563" style="stroke: #A80036; stroke-width: 1.0;"/><line style="stroke: #A80036; stroke-width: 1.0;" x1="285.5" x2="285.5" y1="622.1563" y2="632.1563"/><line style="stroke: #A80036; stroke-width: 1.0;" x1="295.5" x2="285.5" y1="632.1563" y2="632.1563"/><text fill="#000000" font-family="sans-serif" font-size="13" lengthAdjust="spacingAndGlyphs" textLength="159" x="121.5" y="639.2231">Everyone posts evidence</text><polygon fill="#A80036" points="265,673.2891,255,677.2891,265,681.2891,261,677.2891" style="stroke: #A80036; stroke-width: 1.0;"/><line style="stroke: #A80036; stroke-width: 1.0;" x1="259" x2="412.5" y1="677.2891" y2="677.2891"/><text fill="#000000" font-family="sans-serif" font-size="13" lengthAdjust="spacingAndGlyphs" textLength="88" x="271" y="672.356">Payout vector</text><polygon fill="#FBFB77" filter="url(#f1)" points="5,661.2891,5,686.2891,245,686.2891,245,671.2891,235,661.2891,5,661.2891" style="stroke: #A80036; stroke-width: 1.0;"/><line style="stroke: #A80036; stroke-width: 1.0;" x1="235" x2="235" y1="661.2891" y2="671.2891"/><line style="stroke: #A80036; stroke-width: 1.0;" x1="245" x2="235" y1="671.2891" y2="671.2891"/><text fill="#000000" font-family="sans-serif" font-size="13" lengthAdjust="spacingAndGlyphs" textLength="219" x="11" y="678.356">Notary receives payout instruction</text><polygon fill="#A80036" points="447,712.4219,457,716.4219,447,720.4219,451,716.4219" style="stroke: #A80036; stroke-width: 1.0;"/><line style="stroke: #A80036; stroke-width: 1.0;" x1="254" x2="453" y1="716.4219" y2="716.4219"/><text fill="#000000" font-family="sans-serif" font-size="13" lengthAdjust="spacingAndGlyphs" textLength="88" x="261" y="711.4888">Payout vector</text><polygon fill="#FBFB77" filter="url(#f1)" points="23,700.4219,23,740.4219,245,740.4219,245,710.4219,235,700.4219,23,700.4219" style="stroke: #A80036; stroke-width: 1.0;"/><line style="stroke: #A80036; stroke-width: 1.0;" x1="235" x2="235" y1="700.4219" y2="710.4219"/><line style="stroke: #A80036; stroke-width: 1.0;" x1="245" x2="235" y1="710.4219" y2="710.4219"/><text fill="#000000" font-family="sans-serif" font-size="13" lengthAdjust="spacingAndGlyphs" textLength="201" x="29" y="717.4888">Notary posts payout instruction</text><text fill="#000000" font-family="sans-serif" font-size="13" lengthAdjust="spacingAndGlyphs" textLength="89" x="29" y="732.6216">to value chain</text></g></svg>