<?xml version="1.0" encoding="UTF-8" standalone="yes"?><svg xmlns="http://www.w3.org/2000/svg" xmlns:xlink="http://www.w3.org/1999/xlink" height="945px" style="width:810px;height:945px;" version="1.1" viewBox="0 0 810 945" width="810px"><defs><filter height="300%" id="f1" width="300%" x="-1" y="-1"><feGaussianBlur result="blurOut" stdDeviation="2.0"/><feColorMatrix in="blurOut" result="blurOut2" type="matrix" values="0 0 0 0 0 0 0 0 0 0 0 0 0 0 0 0 0 0 .4 0"/><feOffset dx="4.0" dy="4.0" in="blurOut2" result="blurOut3"/><feBlend in="SourceGraphic" in2="blurOut3" mode="normal"/></filter></defs><g><text fill="#000000" font-family="sans-serif" font-size="14" lengthAdjust="spacingAndGlyphs" textLength="44" x="173.5" y="79.9951">Notary</text><ellipse cx="198.5" cy="10" fill="#FEFECE" filter="url(#f1)" rx="8" ry="8" style="stroke: #A80036; stroke-width: 2.0;"/><path d="M198.5,18 L198.5,45 M185.5,26 L211.5,26 M198.5,45 L185.5,60 M198.5,45 L211.5,60 " fill="#FEFECE" filter="url(#f1)" style="stroke: #A80036; stroke-width: 2.0;"/><text fill="#000000" font-family="sans-serif" font-size="14" lengthAdjust="spacingAndGlyphs" textLength="45" x="223.5" y="79.9951">Dealer</text><ellipse cx="249" cy="10" fill="#FEFECE" filter="url(#f1)" rx="8" ry="8" style="stroke: #A80036; stroke-width: 2.0;"/><path d="M249,18 L249,45 M236,26 L262,26 M249,45 L236,60 M249,45 L262,60 " fill="#FEFECE" filter="url(#f1)" style="stroke: #A80036; stroke-width: 2.0;"/><text fill="#000000" font-family="sans-serif" font-size="14" lengthAdjust="spacingAndGlyphs" textLength="57" x="326.5" y="79.9951">PANGEA</text><path d="M340,35 C340,25 358,25 358,25 C358,25 376,25 376,35 L376,57 C376,67 358,67 358,67 C358,67 340,67 340,57 L340,35 " fill="#FEFECE" filter="url(#f1)" style="stroke: #A80036; stroke-width: 1.5;"/><path d="M340,35 C340,45 358,45 358,45 C358,45 376,45 376,35 " fill="none" style="stroke: #A80036; stroke-width: 1.5;"/><text fill="#000000" font-family="sans-serif" font-size="14" lengthAdjust="spacingAndGlyphs" textLength="32" x="389.5" y="79.9951">KMD</text><path d="M390.5,35 C390.5,25 408.5,25 408.5,25 C408.5,25 426.5,25 426.5,35 L426.5,57 C426.5,67 408.5,67 408.5,67 C408.5,67 390.5,67 390.5,57 L390.5,35 " fill="#FEFECE" filter="url(#f1)" style="stroke: #A80036; stroke-width: 1.5;"/><path d="M390.5,35 C390.5,45 408.5,45 408.5,45 C408.5,45 426.5,45 426.5,35 " fill="none" style="stroke: #A80036; stroke-width: 1.5;"/><text fill="#000000" font-family="sans-serif" font-size="14" lengthAdjust="spacingAndGlyphs" textLength="50" x="487.5" y="79.9951">Player1</text><ellipse cx="515.5" cy="10" fill="#FEFECE" filter="url(#f1)" rx="8" ry="8" style="stroke: #A80036; stroke-width: 2.0;"/><path d="M515.5,18 L515.5,45 M502.5,26 L528.5,26 M515.5,45 L502.5,60 M515.5,45 L528.5,60 " fill="#FEFECE" filter="url(#f1)" style="stroke: #A80036; stroke-width: 2.0;"/><text fill="#000000" font-family="sans-serif" font-size="14" lengthAdjust="spacingAndGlyphs" textLength="50" x="543.5" y="79.9951">Player2</text><ellipse cx="571.5" cy="10" fill="#FEFECE" filter="url(#f1)" rx="8" ry="8" style="stroke: #A80036; stroke-width: 2.0;"/><path d="M571.5,18 L571.5,45 M558.5,26 L584.5,26 M571.5,45 L558.5,60 M571.5,45 L584.5,60 " fill="#FEFECE" filter="url(#f1)" style="stroke: #A80036; stroke-width: 2.0;"/><line style="stroke: #A80036; stroke-width: 1.0; stroke-dasharray: 5.0,5.0;" x1="198.5" x2="198.5" y1="83.2969" y2="864.2188"/><line style="stroke: #A80036; stroke-width: 1.0; stroke-dasharray: 5.0,5.0;" x1="249" x2="249" y1="83.2969" y2="864.2188"/><line style="stroke: #A80036; stroke-width: 1.0; stroke-dasharray: 5.0,5.0;" x1="358" x2="358" y1="83.2969" y2="864.2188"/><rect fill="#FFFFFF" filter="url(#f1)" height="241.9297" style="stroke: #A80036; stroke-width: 1.0;" width="10" x="353" y="147.4297"/><rect fill="#FFFFFF" filter="url(#f1)" height="281.0625" style="stroke: #A80036; stroke-width: 1.0;" width="10" x="353" y="471.625"/><line style="stroke: #A80036; stroke-width: 1.0; stroke-dasharray: 5.0,5.0;" x1="408.5" x2="408.5" y1="83.2969" y2="864.2188"/><rect fill="#FFFFFF" filter="url(#f1)" height="113.3984" style="stroke: #A80036; stroke-width: 1.0;" width="10" x="403.5" y="221.6953"/><rect fill="#FFFFFF" filter="url(#f1)" height="290.1953" style="stroke: #A80036; stroke-width: 1.0;" width="10" x="403.5" y="545.8906"/><line style="stroke: #A80036; stroke-width: 1.0; stroke-dasharray: 5.0,5.0;" x1="515.5" x2="515.5" y1="83.2969" y2="864.2188"/><line style="stroke: #A80036; stroke-width: 1.0; stroke-dasharray: 5.0,5.0;" x1="571.5" x2="571.5" y1="83.2969" y2="864.2188"/><text fill="#000000" font-family="sans-serif" font-size="14" lengthAdjust="spacingAndGlyphs" textLength="44" x="173.5" y="944.2139">Notary</text><ellipse cx="198.5" cy="874.2188" fill="#FEFECE" filter="url(#f1)" rx="8" ry="8" style="stroke: #A80036; stroke-width: 2.0;"/><path d="M198.5,882.2188 L198.5,909.2188 M185.5,890.2188 L211.5,890.2188 M198.5,909.2188 L185.5,924.2188 M198.5,909.2188 L211.5,924.2188 " fill="#FEFECE" filter="url(#f1)" style="stroke: #A80036; stroke-width: 2.0;"/><text fill="#000000" font-family="sans-serif" font-size="14" lengthAdjust="spacingAndGlyphs" textLength="45" x="223.5" y="944.2139">Dealer</text><ellipse cx="249" cy="874.2188" fill="#FEFECE" filter="url(#f1)" rx="8" ry="8" style="stroke: #A80036; stroke-width: 2.0;"/><path d="M249,882.2188 L249,909.2188 M236,890.2188 L262,890.2188 M249,909.2188 L236,924.2188 M249,909.2188 L262,924.2188 " fill="#FEFECE" filter="url(#f1)" style="stroke: #A80036; stroke-width: 2.0;"/><text fill="#000000" font-family="sans-serif" font-size="14" lengthAdjust="spacingAndGlyphs" textLength="57" x="326.5" y="919.2139">PANGEA</text><path d="M340,874.2188 C340,864.2188 358,864.2188 358,864.2188 C358,864.2188 376,864.2188 376,874.2188 L376,896.2188 C376,906.2188 358,906.2188 358,906.2188 C358,906.2188 340,906.2188 340,896.2188 L340,874.2188 " fill="#FEFECE" filter="url(#f1)" style="stroke: #A80036; stroke-width: 1.5;"/><path d="M340,874.2188 C340,884.2188 358,884.2188 358,884.2188 C358,884.2188 376,884.2188 376,874.2188 " fill="none" style="stroke: #A80036; stroke-width: 1.5;"/><text fill="#000000" font-family="sans-serif" font-size="14" lengthAdjust="spacingAndGlyphs" textLength="32" x="389.5" y="919.2139">KMD</text><path d="M390.5,874.2188 C390.5,864.2188 408.5,864.2188 408.5,864.2188 C408.5,864.2188 426.5,864.2188 426.5,874.2188 L426.5,896.2188 C426.5,906.2188 408.5,906.2188 408.5,906.2188 C408.5,906.2188 390.5,906.2188 390.5,896.2188 L390.5,874.2188 " fill="#FEFECE" filter="url(#f1)" style="stroke: #A80036; stroke-width: 1.5;"/><path d="M390.5,874.2188 C390.5,884.2188 408.5,884.2188 408.5,884.2188 C408.5,884.2188 426.5,884.2188 426.5,874.2188 " fill="none" style="stroke: #A80036; stroke-width: 1.5;"/><text fill="#000000" font-family="sans-serif" font-size="14" lengthAdjust="spacingAndGlyphs" textLength="50" x="487.5" y="944.2139">Player1</text><ellipse cx="515.5" cy="874.2188" fill="#FEFECE" filter="url(#f1)" rx="8" ry="8" style="stroke: #A80036; stroke-width: 2.0;"/><path d="M515.5,882.2188 L515.5,909.2188 M502.5,890.2188 L528.5,890.2188 M515.5,909.2188 L502.5,924.2188 M515.5,909.2188 L528.5,924.2188 " fill="#FEFECE" filter="url(#f1)" style="stroke: #A80036; stroke-width: 2.0;"/><text fill="#000000" font-family="sans-serif" font-size="14" lengthAdjust="spacingAndGlyphs" textLength="50" x="543.5" y="944.2139">Player2</text><ellipse cx="571.5" cy="874.2188" fill="#FEFECE" filter="url(#f1)" rx="8" ry="8" style="stroke: #A80036; stroke-width: 2.0;"/><path d="M571.5,882.2188 L571.5,909.2188 M558.5,890.2188 L584.5,890.2188 M571.5,909.2188 L558.5,924.2188 M571.5,909.2188 L584.5,924.2188 " fill="#FEFECE" filter="url(#f1)" style="stroke: #A80036; stroke-width: 2.0;"/><rect fill="#EEEEEE" filter="url(#f1)" height="3" style="stroke: #EEEEEE; stroke-width: 1.0;" width="632" x="173.5" y="103.8633"/><line style="stroke: #000000; stroke-width: 1.0;" x1="173.5" x2="805.5" y1="103.8633" y2="103.8633"/><line style="stroke: #000000; stroke-width: 1.0;" x1="173.5" x2="805.5" y1="106.8633" y2="106.8633"/><rect fill="#EEEEEE" filter="url(#f1)" height="23.1328" style="stroke: #000000; stroke-width: 2.0;" width="178" x="400.5" y="93.2969"/><text fill="#000000" font-family="sans-serif" font-size="13" font-weight="bold" lengthAdjust="spacingAndGlyphs" textLength="159" x="406.5" y="109.3638">When players behave</text><polygon fill="#A80036" points="341,143.4297,351,147.4297,341,151.4297,345,147.4297" style="stroke: #A80036; stroke-width: 1.0;"/><line style="stroke: #A80036; stroke-width: 1.0;" x1="249" x2="347" y1="147.4297" y2="147.4297"/><text fill="#000000" font-family="sans-serif" font-size="13" lengthAdjust="spacingAndGlyphs" textLength="84" x="256" y="142.4966">OpenSession</text><polygon fill="#FBFB77" filter="url(#f1)" points="17,131.4297,17,171.4297,240,171.4297,240,141.4297,230,131.4297,17,131.4297" style="stroke: #A80036; stroke-width: 1.0;"/><line style="stroke: #A80036; stroke-width: 1.0;" x1="230" x2="230" y1="131.4297" y2="141.4297"/><line style="stroke: #A80036; stroke-width: 1.0;" x1="240" x2="230" y1="141.4297" y2="141.4297"/><text fill="#000000" font-family="sans-serif" font-size="13" lengthAdjust="spacingAndGlyphs" textLength="202" x="23" y="148.4966">Dealer creates a transaction on</text><text fill="#000000" font-family="sans-serif" font-size="13" lengthAdjust="spacingAndGlyphs" textLength="199" x="23" y="163.6294">app chain to secure the payout</text><polygon fill="#A80036" points="419.5,217.6953,409.5,221.6953,419.5,225.6953,415.5,221.6953" style="stroke: #A80036; stroke-width: 1.0;"/><line style="stroke: #A80036; stroke-width: 1.0;" x1="413.5" x2="514.5" y1="221.6953" y2="221.6953"/><text fill="#000000" font-family="sans-serif" font-size="13" lengthAdjust="spacingAndGlyphs" textLength="31" x="425.5" y="216.7622">Fund</text><polygon fill="#A80036" points="424.5,217.6953,414.5,221.6953,424.5,225.6953,420.5,221.6953" style="stroke: #A80036; stroke-width: 1.0;"/><line style="stroke: #A80036; stroke-width: 1.0;" x1="418.5" x2="570.5" y1="221.6953" y2="221.6953"/><polygon fill="#FBFB77" filter="url(#f1)" points="576.5,205.6953,576.5,245.6953,796.5,245.6953,796.5,215.6953,786.5,205.6953,576.5,205.6953" style="stroke: #A80036; stroke-width: 1.0;"/><line style="stroke: #A80036; stroke-width: 1.0;" x1="786.5" x2="786.5" y1="205.6953" y2="215.6953"/><line style="stroke: #A80036; stroke-width: 1.0;" x1="796.5" x2="786.5" y1="215.6953" y2="215.6953"/><text fill="#000000" font-family="sans-serif" font-size="13" lengthAdjust="spacingAndGlyphs" textLength="199" x="582.5" y="222.7622">Players create a transaction on</text><text fill="#000000" font-family="sans-serif" font-size="13" lengthAdjust="spacingAndGlyphs" textLength="187" x="582.5" y="237.895">value chain to fund the game</text><polygon fill="#A80036" points="260,291.9609,250,295.9609,260,299.9609,256,295.9609" style="stroke: #A80036; stroke-width: 1.0;"/><line style="stroke: #A80036; stroke-width: 1.0;" x1="254" x2="514.5" y1="295.9609" y2="295.9609"/><text fill="#000000" font-family="sans-serif" font-size="13" lengthAdjust="spacingAndGlyphs" textLength="63" x="266" y="291.0278">gameplay</text><polygon fill="#A80036" points="260,291.9609,250,295.9609,260,299.9609,256,295.9609" style="stroke: #A80036; stroke-width: 1.0;"/><line style="stroke: #A80036; stroke-width: 1.0;" x1="254" x2="570.5" y1="295.9609" y2="295.9609"/><polygon fill="#FBFB77" filter="url(#f1)" points="576.5,279.9609,576.5,304.9609,771.5,304.9609,771.5,289.9609,761.5,279.9609,576.5,279.9609" style="stroke: #A80036; stroke-width: 1.0;"/><line style="stroke: #A80036; stroke-width: 1.0;" x1="761.5" x2="761.5" y1="279.9609" y2="289.9609"/><line style="stroke: #A80036; stroke-width: 1.0;" x1="771.5" x2="761.5" y1="289.9609" y2="289.9609"/><text fill="#000000" font-family="sans-serif" font-size="13" lengthAdjust="spacingAndGlyphs" textLength="174" x="582.5" y="297.0278">Game is executed off chain</text><polygon fill="#A80036" points="424.5,331.0938,414.5,335.0938,424.5,339.0938,420.5,335.0938" style="stroke: #A80036; stroke-width: 1.0;"/><line style="stroke: #A80036; stroke-width: 1.0;" x1="418.5" x2="514.5" y1="335.0938" y2="335.0938"/><text fill="#000000" font-family="sans-serif" font-size="13" lengthAdjust="spacingAndGlyphs" textLength="83" x="430.5" y="330.1606">PlayerPayout</text><polygon fill="#A80036" points="424.5,331.0938,414.5,335.0938,424.5,339.0938,420.5,335.0938" style="stroke: #A80036; stroke-width: 1.0;"/><line style="stroke: #A80036; stroke-width: 1.0;" x1="418.5" x2="570.5" y1="335.0938" y2="335.0938"/><polygon fill="#A80036" points="391.5,331.0938,401.5,335.0938,391.5,339.0938,395.5,335.0938" style="stroke: #A80036; stroke-width: 1.0;"/><line style="stroke: #A80036; stroke-width: 1.0;" x1="249" x2="397.5" y1="335.0938" y2="335.0938"/><polygon fill="#FBFB77" filter="url(#f1)" points="5,319.0938,5,359.0938,240,359.0938,240,329.0938,230,319.0938,5,319.0938" style="stroke: #A80036; stroke-width: 1.0;"/><line style="stroke: #A80036; stroke-width: 1.0;" x1="230" x2="230" y1="319.0938" y2="329.0938"/><line style="stroke: #A80036; stroke-width: 1.0;" x1="240" x2="230" y1="329.0938" y2="329.0938"/><text fill="#000000" font-family="sans-serif" font-size="13" lengthAdjust="spacingAndGlyphs" textLength="204" x="11" y="336.1606">n/2+1 players plus dealer agree</text><text fill="#000000" font-family="sans-serif" font-size="13" lengthAdjust="spacingAndGlyphs" textLength="214" x="11" y="351.2935">on payout vector and close game</text><polygon fill="#A80036" points="341,385.3594,351,389.3594,341,393.3594,345,389.3594" style="stroke: #A80036; stroke-width: 1.0;"/><line style="stroke: #A80036; stroke-width: 1.0;" x1="249" x2="347" y1="389.3594" y2="389.3594"/><text fill="#000000" font-family="sans-serif" font-size="13" lengthAdjust="spacingAndGlyphs" textLength="85" x="256" y="384.4263">CloseSession</text><polygon fill="#FBFB77" filter="url(#f1)" points="83,373.3594,83,398.3594,240,398.3594,240,383.3594,230,373.3594,83,373.3594" style="stroke: #A80036; stroke-width: 1.0;"/><line style="stroke: #A80036; stroke-width: 1.0;" x1="230" x2="230" y1="373.3594" y2="383.3594"/><line style="stroke: #A80036; stroke-width: 1.0;" x1="240" x2="230" y1="383.3594" y2="383.3594"/><text fill="#000000" font-family="sans-serif" font-size="13" lengthAdjust="spacingAndGlyphs" textLength="136" x="89" y="390.4263">dealer closes session</text><rect fill="#EEEEEE" filter="url(#f1)" height="3" style="stroke: #EEEEEE; stroke-width: 1.0;" width="632" x="173.5" y="428.0586"/><line style="stroke: #000000; stroke-width: 1.0;" x1="173.5" x2="805.5" y1="428.0586" y2="428.0586"/><line style="stroke: #000000; stroke-width: 1.0;" x1="173.5" x2="805.5" y1="431.0586" y2="431.0586"/><rect fill="#EEEEEE" filter="url(#f1)" height="23.1328" style="stroke: #000000; stroke-width: 2.0;" width="214" x="382.5" y="417.4922"/><text fill="#000000" font-family="sans-serif" font-size="13" font-weight="bold" lengthAdjust="spacingAndGlyphs" textLength="195" x="388.5" y="433.5591">When n/2 players time out</text><polygon fill="#A80036" points="341,467.625,351,471.625,341,475.625,345,471.625" style="stroke: #A80036; stroke-width: 1.0;"/><line style="stroke: #A80036; stroke-width: 1.0;" x1="249" x2="347" y1="471.625" y2="471.625"/><text fill="#000000" font-family="sans-serif" font-size="13" lengthAdjust="spacingAndGlyphs" textLength="84" x="256" y="466.6919">OpenSession</text><polygon fill="#FBFB77" filter="url(#f1)" points="17,455.625,17,495.625,240,495.625,240,465.625,230,455.625,17,455.625" style="stroke: #A80036; stroke-width: 1.0;"/><line style="stroke: #A80036; stroke-width: 1.0;" x1="230" x2="230" y1="455.625" y2="465.625"/><line style="stroke: #A80036; stroke-width: 1.0;" x1="240" x2="230" y1="465.625" y2="465.625"/><text fill="#000000" font-family="sans-serif" font-size="13" lengthAdjust="spacingAndGlyphs" textLength="202" x="23" y="472.6919">Dealer creates a transaction on</text><text fill="#000000" font-family="sans-serif" font-size="13" lengthAdjust="spacingAndGlyphs" textLength="199" x="23" y="487.8247">app chain to secure the payout</text><polygon fill="#A80036" points="419.5,541.8906,409.5,545.8906,419.5,549.8906,415.5,545.8906" style="stroke: #A80036; stroke-width: 1.0;"/><line style="stroke: #A80036; stroke-width: 1.0;" x1="413.5" x2="514.5" y1="545.8906" y2="545.8906"/><text fill="#000000" font-family="sans-serif" font-size="13" lengthAdjust="spacingAndGlyphs" textLength="31" x="425.5" y="540.9575">Fund</text><polygon fill="#A80036" points="424.5,541.8906,414.5,545.8906,424.5,549.8906,420.5,545.8906" style="stroke: #A80036; stroke-width: 1.0;"/><line style="stroke: #A80036; stroke-width: 1.0;" x1="418.5" x2="570.5" y1="545.8906" y2="545.8906"/><polygon fill="#FBFB77" filter="url(#f1)" points="576.5,529.8906,576.5,569.8906,796.5,569.8906,796.5,539.8906,786.5,529.8906,576.5,529.8906" style="stroke: #A80036; stroke-width: 1.0;"/><line style="stroke: #A80036; stroke-width: 1.0;" x1="786.5" x2="786.5" y1="529.8906" y2="539.8906"/><line style="stroke: #A80036; stroke-width: 1.0;" x1="796.5" x2="786.5" y1="539.8906" y2="539.8906"/><text fill="#000000" font-family="sans-serif" font-size="13" lengthAdjust="spacingAndGlyphs" textLength="199" x="582.5" y="546.9575">Players create a transaction on</text><text fill="#000000" font-family="sans-serif" font-size="13" lengthAdjust="spacingAndGlyphs" textLength="187" x="582.5" y="562.0903">value chain to fund the game</text><polygon fill="#A80036" points="260,616.1563,250,620.1563,260,624.1563,256,620.1563" style="stroke: #A80036; stroke-width: 1.0;"/><line style="stroke: #A80036; stroke-width: 1.0;" x1="254" x2="514.5" y1="620.1563" y2="620.1563"/><text fill="#000000" font-family="sans-serif" font-size="13" lengthAdjust="spacingAndGlyphs" textLength="63" x="266" y="615.2231">gameplay</text><polygon fill="#A80036" points="260,616.1563,250,620.1563,260,624.1563,256,620.1563" style="stroke: #A80036; stroke-width: 1.0;"/><line style="stroke: #A80036; stroke-width: 1.0;" x1="254" x2="570.5" y1="620.1563" y2="620.1563"/><polygon fill="#FBFB77" filter="url(#f1)" points="576.5,604.1563,576.5,629.1563,771.5,629.1563,771.5,614.1563,761.5,604.1563,576.5,604.1563" style="stroke: #A80036; stroke-width: 1.0;"/><line style="stroke: #A80036; stroke-width: 1.0;" x1="761.5" x2="761.5" y1="604.1563" y2="614.1563"/><line style="stroke: #A80036; stroke-width: 1.0;" x1="771.5" x2="761.5" y1="614.1563" y2="614.1563"/><text fill="#000000" font-family="sans-serif" font-size="13" lengthAdjust="spacingAndGlyphs" textLength="174" x="582.5" y="621.2231">Game is executed off chain</text><polygon fill="#A80036" points="374,655.2891,364,659.2891,374,663.2891,370,659.2891" style="stroke: #A80036; stroke-width: 1.0;"/><line style="stroke: #A80036; stroke-width: 1.0;" x1="368" x2="514.5" y1="659.2891" y2="659.2891"/><text fill="#000000" font-family="sans-serif" font-size="13" lengthAdjust="spacingAndGlyphs" textLength="64" x="380" y="654.356">PostClaim</text><polygon fill="#FBFB77" filter="url(#f1)" points="520.5,643.2891,520.5,668.2891,690.5,668.2891,690.5,653.2891,680.5,643.2891,520.5,643.2891" style="stroke: #A80036; stroke-width: 1.0;"/><line style="stroke: #A80036; stroke-width: 1.0;" x1="680.5" x2="680.5" y1="643.2891" y2="653.2891"/><line style="stroke: #A80036; stroke-width: 1.0;" x1="690.5" x2="680.5" y1="653.2891" y2="653.2891"/><text fill="#000000" font-family="sans-serif" font-size="13" lengthAdjust="spacingAndGlyphs" textLength="149" x="526.5" y="660.356">Player posts claim data</text><polygon fill="#A80036" points="374,694.4219,364,698.4219,374,702.4219,370,698.4219" style="stroke: #A80036; stroke-width: 1.0;"/><line style="stroke: #A80036; stroke-width: 1.0;" x1="368" x2="570.5" y1="698.4219" y2="698.4219"/><text fill="#000000" font-family="sans-serif" font-size="13" lengthAdjust="spacingAndGlyphs" textLength="64" x="380" y="693.4888">PostClaim</text><polygon fill="#A80036" points="341,694.4219,351,698.4219,341,702.4219,345,698.4219" style="stroke: #A80036; stroke-width: 1.0;"/><line style="stroke: #A80036; stroke-width: 1.0;" x1="249" x2="347" y1="698.4219" y2="698.4219"/><text fill="#000000" font-family="sans-serif" font-size="13" lengthAdjust="spacingAndGlyphs" textLength="64" x="256" y="693.4888">PostClaim</text><polygon fill="#FBFB77" filter="url(#f1)" points="12,682.4219,12,722.4219,240,722.4219,240,692.4219,230,682.4219,12,682.4219" style="stroke: #A80036; stroke-width: 1.0;"/><line style="stroke: #A80036; stroke-width: 1.0;" x1="230" x2="230" y1="682.4219" y2="692.4219"/><line style="stroke: #A80036; stroke-width: 1.0;" x1="240" x2="230" y1="692.4219" y2="692.4219"/><text fill="#000000" font-family="sans-serif" font-size="13" lengthAdjust="spacingAndGlyphs" textLength="200" x="18" y="699.4888">Everyone posts claim data until</text><text fill="#000000" font-family="sans-serif" font-size="13" lengthAdjust="spacingAndGlyphs" textLength="207" x="18" y="714.6216">ResolveClaim LockTime releases</text><polygon fill="#A80036" points="374,748.6875,364,752.6875,374,756.6875,370,752.6875" style="stroke: #A80036; stroke-width: 1.0;"/><line style="stroke: #A80036; stroke-width: 1.0;" x1="368" x2="514.5" y1="752.6875" y2="752.6875"/><text fill="#000000" font-family="sans-serif" font-size="13" lengthAdjust="spacingAndGlyphs" textLength="85" x="380" y="747.7544">ResolveClaim</text><polygon fill="#A80036" points="374,748.6875,364,752.6875,374,756.6875,370,752.6875" style="stroke: #A80036; stroke-width: 1.0;"/><line style="stroke: #A80036; stroke-width: 1.0;" x1="368" x2="570.5" y1="752.6875" y2="752.6875"/><text fill="#000000" font-family="sans-serif" font-size="13" lengthAdjust="spacingAndGlyphs" textLength="85" x="380" y="747.7544">ResolveClaim</text><polygon fill="#A80036" points="341,748.6875,351,752.6875,341,756.6875,345,752.6875" style="stroke: #A80036; stroke-width: 1.0;"/><line style="stroke: #A80036; stroke-width: 1.0;" x1="249" x2="347" y1="752.6875" y2="752.6875"/><text fill="#000000" font-family="sans-serif" font-size="13" lengthAdjust="spacingAndGlyphs" textLength="85" x="256" y="747.7544">ResolveClaim</text><polygon fill="#FBFB77" filter="url(#f1)" points="12,736.6875,12,776.6875,240,776.6875,240,746.6875,230,736.6875,12,736.6875" style="stroke: #A80036; stroke-width: 1.0;"/><line style="stroke: #A80036; stroke-width: 1.0;" x1="230" x2="230" y1="736.6875" y2="746.6875"/><line style="stroke: #A80036; stroke-width: 1.0;" x1="240" x2="230" y1="746.6875" y2="746.6875"/><text fill="#000000" font-family="sans-serif" font-size="13" lengthAdjust="spacingAndGlyphs" textLength="203" x="18" y="753.7544">Everyone posts claim resolution</text><text fill="#000000" font-family="sans-serif" font-size="13" lengthAdjust="spacingAndGlyphs" textLength="207" x="18" y="768.8872">Only correct resolution accepted</text><polygon fill="#A80036" points="391.5,802.9531,401.5,806.9531,391.5,810.9531,395.5,806.9531" style="stroke: #A80036; stroke-width: 1.0;"/><line style="stroke: #A80036; stroke-width: 1.0;" x1="198.5" x2="397.5" y1="806.9531" y2="806.9531"/><text fill="#000000" font-family="sans-serif" font-size="13" lengthAdjust="spacingAndGlyphs" textLength="52" x="205.5" y="802.02">notarize</text><polygon fill="#A80036" points="424.5,832.0859,414.5,836.0859,424.5,840.0859,420.5,836.0859" style="stroke: #A80036; stroke-width: 1.0;"/><line style="stroke: #A80036; stroke-width: 1.0;" x1="418.5" x2="514.5" y1="836.0859" y2="836.0859"/><text fill="#000000" font-family="sans-serif" font-size="13" lengthAdjust="spacingAndGlyphs" textLength="80" x="430.5" y="831.1528">ClaimPayout</text><polygon fill="#A80036" points="424.5,832.0859,414.5,836.0859,424.5,840.0859,420.5,836.0859" style="stroke: #A80036; stroke-width: 1.0;"/><line style="stroke: #A80036; stroke-width: 1.0;" x1="418.5" x2="570.5" y1="836.0859" y2="836.0859"/><text fill="#000000" font-family="sans-serif" font-size="13" lengthAdjust="spacingAndGlyphs" textLength="80" x="430.5" y="831.1528">ClaimPayout</text><polygon fill="#A80036" points="391.5,832.0859,401.5,836.0859,391.5,840.0859,395.5,836.0859" style="stroke: #A80036; stroke-width: 1.0;"/><line style="stroke: #A80036; stroke-width: 1.0;" x1="249" x2="397.5" y1="836.0859" y2="836.0859"/><text fill="#000000" font-family="sans-serif" font-size="13" lengthAdjust="spacingAndGlyphs" textLength="80" x="256" y="831.1528">ClaimPayout</text><polygon fill="#FBFB77" filter="url(#f1)" points="121,820.0859,121,845.0859,240,845.0859,240,830.0859,230,820.0859,121,820.0859" style="stroke: #A80036; stroke-width: 1.0;"/><line style="stroke: #A80036; stroke-width: 1.0;" x1="230" x2="230" y1="820.0859" y2="830.0859"/><line style="stroke: #A80036; stroke-width: 1.0;" x1="240" x2="230" y1="830.0859" y2="830.0859"/><text fill="#000000" font-family="sans-serif" font-size="13" lengthAdjust="spacingAndGlyphs" textLength="98" x="127" y="837.1528">Everyone posts</text></g></svg>