<?xml version="1.0" encoding="UTF-8" standalone="yes"?><svg xmlns="http://www.w3.org/2000/svg" xmlns:xlink="http://www.w3.org/1999/xlink" height="875px" style="width:974px;height:875px;" version="1.1" viewBox="0 0 974 875" width="974px"><defs><filter height="300%" id="f1" width="300%" x="-1" y="-1"><feGaussianBlur result="blurOut" stdDeviation="2.0"/><feColorMatrix in="blurOut" result="blurOut2" type="matrix" values="0 0 0 0 0 0 0 0 0 0 0 0 0 0 0 0 0 0 .4 0"/><feOffset dx="4.0" dy="4.0" in="blurOut2" result="blurOut3"/><feBlend in="SourceGraphic" in2="blurOut3" mode="normal"/></filter></defs><g><text fill="#000000" font-family="sans-serif" font-size="14" lengthAdjust="spacingAndGlyphs" textLength="44" x="337.5" y="79.9951">Notary</text><ellipse cx="362.5" cy="10" fill="#FEFECE" filter="url(#f1)" rx="8" ry="8" style="stroke: #A80036; stroke-width: 2.0;"/><path d="M362.5,18 L362.5,45 M349.5,26 L375.5,26 M362.5,45 L349.5,60 M362.5,45 L375.5,60 " fill="#FEFECE" filter="url(#f1)" style="stroke: #A80036; stroke-width: 2.0;"/><text fill="#000000" font-family="sans-serif" font-size="14" lengthAdjust="spacingAndGlyphs" textLength="45" x="387.5" y="79.9951">Dealer</text><ellipse cx="413" cy="10" fill="#FEFECE" filter="url(#f1)" rx="8" ry="8" style="stroke: #A80036; stroke-width: 2.0;"/><path d="M413,18 L413,45 M400,26 L426,26 M413,45 L400,60 M413,45 L426,60 " fill="#FEFECE" filter="url(#f1)" style="stroke: #A80036; stroke-width: 2.0;"/><text fill="#000000" font-family="sans-serif" font-size="14" lengthAdjust="spacingAndGlyphs" textLength="57" x="490.5" y="79.9951">PANGEA</text><path d="M504,35 C504,25 522,25 522,25 C522,25 540,25 540,35 L540,57 C540,67 522,67 522,67 C522,67 504,67 504,57 L504,35 " fill="#FEFECE" filter="url(#f1)" style="stroke: #A80036; stroke-width: 1.5;"/><path d="M504,35 C504,45 522,45 522,45 C522,45 540,45 540,35 " fill="none" style="stroke: #A80036; stroke-width: 1.5;"/><text fill="#000000" font-family="sans-serif" font-size="14" lengthAdjust="spacingAndGlyphs" textLength="32" x="553.5" y="79.9951">KMD</text><path d="M554.5,35 C554.5,25 572.5,25 572.5,25 C572.5,25 590.5,25 590.5,35 L590.5,57 C590.5,67 572.5,67 572.5,67 C572.5,67 554.5,67 554.5,57 L554.5,35 " fill="#FEFECE" filter="url(#f1)" style="stroke: #A80036; stroke-width: 1.5;"/><path d="M554.5,35 C554.5,45 572.5,45 572.5,45 C572.5,45 590.5,45 590.5,35 " fill="none" style="stroke: #A80036; stroke-width: 1.5;"/><text fill="#000000" font-family="sans-serif" font-size="14" lengthAdjust="spacingAndGlyphs" textLength="50" x="651.5" y="79.9951">Player1</text><ellipse cx="679.5" cy="10" fill="#FEFECE" filter="url(#f1)" rx="8" ry="8" style="stroke: #A80036; stroke-width: 2.0;"/><path d="M679.5,18 L679.5,45 M666.5,26 L692.5,26 M679.5,45 L666.5,60 M679.5,45 L692.5,60 " fill="#FEFECE" filter="url(#f1)" style="stroke: #A80036; stroke-width: 2.0;"/><text fill="#000000" font-family="sans-serif" font-size="14" lengthAdjust="spacingAndGlyphs" textLength="50" x="707.5" y="79.9951">Player2</text><ellipse cx="735.5" cy="10" fill="#FEFECE" filter="url(#f1)" rx="8" ry="8" style="stroke: #A80036; stroke-width: 2.0;"/><path d="M735.5,18 L735.5,45 M722.5,26 L748.5,26 M735.5,45 L722.5,60 M735.5,45 L748.5,60 " fill="#FEFECE" filter="url(#f1)" style="stroke: #A80036; stroke-width: 2.0;"/><line style="stroke: #A80036; stroke-width: 1.0; stroke-dasharray: 5.0,5.0;" x1="362.5" x2="362.5" y1="83.2969" y2="794.8203"/><line style="stroke: #A80036; stroke-width: 1.0; stroke-dasharray: 5.0,5.0;" x1="413" x2="413" y1="83.2969" y2="794.8203"/><line style="stroke: #A80036; stroke-width: 1.0; stroke-dasharray: 5.0,5.0;" x1="522" x2="522" y1="83.2969" y2="794.8203"/><rect fill="#FFFFFF" filter="url(#f1)" height="241.9297" style="stroke: #A80036; stroke-width: 1.0;" width="10" x="517" y="147.4297"/><rect fill="#FFFFFF" filter="url(#f1)" height="226.7969" style="stroke: #A80036; stroke-width: 1.0;" width="10" x="517" y="471.625"/><line style="stroke: #A80036; stroke-width: 1.0; stroke-dasharray: 5.0,5.0;" x1="572.5" x2="572.5" y1="83.2969" y2="794.8203"/><rect fill="#FFFFFF" filter="url(#f1)" height="113.3984" style="stroke: #A80036; stroke-width: 1.0;" width="10" x="567.5" y="221.6953"/><rect fill="#FFFFFF" filter="url(#f1)" height="220.7969" style="stroke: #A80036; stroke-width: 1.0;" width="10" x="567.5" y="545.8906"/><line style="stroke: #A80036; stroke-width: 1.0; stroke-dasharray: 5.0,5.0;" x1="679.5" x2="679.5" y1="83.2969" y2="794.8203"/><line style="stroke: #A80036; stroke-width: 1.0; stroke-dasharray: 5.0,5.0;" x1="735.5" x2="735.5" y1="83.2969" y2="794.8203"/><text fill="#000000" font-family="sans-serif" font-size="14" lengthAdjust="spacingAndGlyphs" textLength="44" x="337.5" y="874.8154">Notary</text><ellipse cx="362.5" cy="804.8203" fill="#FEFECE" filter="url(#f1)" rx="8" ry="8" style="stroke: #A80036; stroke-width: 2.0;"/><path d="M362.5,812.8203 L362.5,839.8203 M349.5,820.8203 L375.5,820.8203 M362.5,839.8203 L349.5,854.8203 M362.5,839.8203 L375.5,854.8203 " fill="#FEFECE" filter="url(#f1)" style="stroke: #A80036; stroke-width: 2.0;"/><text fill="#000000" font-family="sans-serif" font-size="14" lengthAdjust="spacingAndGlyphs" textLength="45" x="387.5" y="874.8154">Dealer</text><ellipse cx="413" cy="804.8203" fill="#FEFECE" filter="url(#f1)" rx="8" ry="8" style="stroke: #A80036; stroke-width: 2.0;"/><path d="M413,812.8203 L413,839.8203 M400,820.8203 L426,820.8203 M413,839.8203 L400,854.8203 M413,839.8203 L426,854.8203 " fill="#FEFECE" filter="url(#f1)" style="stroke: #A80036; stroke-width: 2.0;"/><text fill="#000000" font-family="sans-serif" font-size="14" lengthAdjust="spacingAndGlyphs" textLength="57" x="490.5" y="849.8154">PANGEA</text><path d="M504,804.8203 C504,794.8203 522,794.8203 522,794.8203 C522,794.8203 540,794.8203 540,804.8203 L540,826.8203 C540,836.8203 522,836.8203 522,836.8203 C522,836.8203 504,836.8203 504,826.8203 L504,804.8203 " fill="#FEFECE" filter="url(#f1)" style="stroke: #A80036; stroke-width: 1.5;"/><path d="M504,804.8203 C504,814.8203 522,814.8203 522,814.8203 C522,814.8203 540,814.8203 540,804.8203 " fill="none" style="stroke: #A80036; stroke-width: 1.5;"/><text fill="#000000" font-family="sans-serif" font-size="14" lengthAdjust="spacingAndGlyphs" textLength="32" x="553.5" y="849.8154">KMD</text><path d="M554.5,804.8203 C554.5,794.8203 572.5,794.8203 572.5,794.8203 C572.5,794.8203 590.5,794.8203 590.5,804.8203 L590.5,826.8203 C590.5,836.8203 572.5,836.8203 572.5,836.8203 C572.5,836.8203 554.5,836.8203 554.5,826.8203 L554.5,804.8203 " fill="#FEFECE" filter="url(#f1)" style="stroke: #A80036; stroke-width: 1.5;"/><path d="M554.5,804.8203 C554.5,814.8203 572.5,814.8203 572.5,814.8203 C572.5,814.8203 590.5,814.8203 590.5,804.8203 " fill="none" style="stroke: #A80036; stroke-width: 1.5;"/><text fill="#000000" font-family="sans-serif" font-size="14" lengthAdjust="spacingAndGlyphs" textLength="50" x="651.5" y="874.8154">Player1</text><ellipse cx="679.5" cy="804.8203" fill="#FEFECE" filter="url(#f1)" rx="8" ry="8" style="stroke: #A80036; stroke-width: 2.0;"/><path d="M679.5,812.8203 L679.5,839.8203 M666.5,820.8203 L692.5,820.8203 M679.5,839.8203 L666.5,854.8203 M679.5,839.8203 L692.5,854.8203 " fill="#FEFECE" filter="url(#f1)" style="stroke: #A80036; stroke-width: 2.0;"/><text fill="#000000" font-family="sans-serif" font-size="14" lengthAdjust="spacingAndGlyphs" textLength="50" x="707.5" y="874.8154">Player2</text><ellipse cx="735.5" cy="804.8203" fill="#FEFECE" filter="url(#f1)" rx="8" ry="8" style="stroke: #A80036; stroke-width: 2.0;"/><path d="M735.5,812.8203 L735.5,839.8203 M722.5,820.8203 L748.5,820.8203 M735.5,839.8203 L722.5,854.8203 M735.5,839.8203 L748.5,854.8203 " fill="#FEFECE" filter="url(#f1)" style="stroke: #A80036; stroke-width: 2.0;"/><rect fill="#EEEEEE" filter="url(#f1)" height="3" style="stroke: #EEEEEE; stroke-width: 1.0;" width="632" x="337.5" y="103.8633"/><line style="stroke: #000000; stroke-width: 1.0;" x1="337.5" x2="969.5" y1="103.8633" y2="103.8633"/><line style="stroke: #000000; stroke-width: 1.0;" x1="337.5" x2="969.5" y1="106.8633" y2="106.8633"/><rect fill="#EEEEEE" filter="url(#f1)" height="23.1328" style="stroke: #000000; stroke-width: 2.0;" width="178" x="564.5" y="93.2969"/><text fill="#000000" font-family="sans-serif" font-size="13" font-weight="bold" lengthAdjust="spacingAndGlyphs" textLength="159" x="570.5" y="109.3638">When players behave</text><polygon fill="#A80036" points="505,143.4297,515,147.4297,505,151.4297,509,147.4297" style="stroke: #A80036; stroke-width: 1.0;"/><line style="stroke: #A80036; stroke-width: 1.0;" x1="413" x2="511" y1="147.4297" y2="147.4297"/><text fill="#000000" font-family="sans-serif" font-size="13" lengthAdjust="spacingAndGlyphs" textLength="84" x="420" y="142.4966">OpenSession</text><polygon fill="#FBFB77" filter="url(#f1)" points="181,131.4297,181,171.4297,404,171.4297,404,141.4297,394,131.4297,181,131.4297" style="stroke: #A80036; stroke-width: 1.0;"/><line style="stroke: #A80036; stroke-width: 1.0;" x1="394" x2="394" y1="131.4297" y2="141.4297"/><line style="stroke: #A80036; stroke-width: 1.0;" x1="404" x2="394" y1="141.4297" y2="141.4297"/><text fill="#000000" font-family="sans-serif" font-size="13" lengthAdjust="spacingAndGlyphs" textLength="202" x="187" y="148.4966">Dealer creates a transaction on</text><text fill="#000000" font-family="sans-serif" font-size="13" lengthAdjust="spacingAndGlyphs" textLength="199" x="187" y="163.6294">app chain to secure the payout</text><polygon fill="#A80036" points="583.5,217.6953,573.5,221.6953,583.5,225.6953,579.5,221.6953" style="stroke: #A80036; stroke-width: 1.0;"/><line style="stroke: #A80036; stroke-width: 1.0;" x1="577.5" x2="678.5" y1="221.6953" y2="221.6953"/><text fill="#000000" font-family="sans-serif" font-size="13" lengthAdjust="spacingAndGlyphs" textLength="31" x="589.5" y="216.7622">Fund</text><polygon fill="#A80036" points="588.5,217.6953,578.5,221.6953,588.5,225.6953,584.5,221.6953" style="stroke: #A80036; stroke-width: 1.0;"/><line style="stroke: #A80036; stroke-width: 1.0;" x1="582.5" x2="734.5" y1="221.6953" y2="221.6953"/><polygon fill="#FBFB77" filter="url(#f1)" points="740.5,205.6953,740.5,245.6953,960.5,245.6953,960.5,215.6953,950.5,205.6953,740.5,205.6953" style="stroke: #A80036; stroke-width: 1.0;"/><line style="stroke: #A80036; stroke-width: 1.0;" x1="950.5" x2="950.5" y1="205.6953" y2="215.6953"/><line style="stroke: #A80036; stroke-width: 1.0;" x1="960.5" x2="950.5" y1="215.6953" y2="215.6953"/><text fill="#000000" font-family="sans-serif" font-size="13" lengthAdjust="spacingAndGlyphs" textLength="199" x="746.5" y="222.7622">Players create a transaction on</text><text fill="#000000" font-family="sans-serif" font-size="13" lengthAdjust="spacingAndGlyphs" textLength="187" x="746.5" y="237.895">value chain to fund the game</text><polygon fill="#A80036" points="424,291.9609,414,295.9609,424,299.9609,420,295.9609" style="stroke: #A80036; stroke-width: 1.0;"/><line style="stroke: #A80036; stroke-width: 1.0;" x1="418" x2="678.5" y1="295.9609" y2="295.9609"/><text fill="#000000" font-family="sans-serif" font-size="13" lengthAdjust="spacingAndGlyphs" textLength="63" x="430" y="291.0278">gameplay</text><polygon fill="#A80036" points="424,291.9609,414,295.9609,424,299.9609,420,295.9609" style="stroke: #A80036; stroke-width: 1.0;"/><line style="stroke: #A80036; stroke-width: 1.0;" x1="418" x2="734.5" y1="295.9609" y2="295.9609"/><polygon fill="#FBFB77" filter="url(#f1)" points="740.5,279.9609,740.5,304.9609,935.5,304.9609,935.5,289.9609,925.5,279.9609,740.5,279.9609" style="stroke: #A80036; stroke-width: 1.0;"/><line style="stroke: #A80036; stroke-width: 1.0;" x1="925.5" x2="925.5" y1="279.9609" y2="289.9609"/><line style="stroke: #A80036; stroke-width: 1.0;" x1="935.5" x2="925.5" y1="289.9609" y2="289.9609"/><text fill="#000000" font-family="sans-serif" font-size="13" lengthAdjust="spacingAndGlyphs" textLength="174" x="746.5" y="297.0278">Game is executed off chain</text><polygon fill="#A80036" points="588.5,331.0938,578.5,335.0938,588.5,339.0938,584.5,335.0938" style="stroke: #A80036; stroke-width: 1.0;"/><line style="stroke: #A80036; stroke-width: 1.0;" x1="582.5" x2="678.5" y1="335.0938" y2="335.0938"/><text fill="#000000" font-family="sans-serif" font-size="13" lengthAdjust="spacingAndGlyphs" textLength="83" x="594.5" y="330.1606">PlayerPayout</text><polygon fill="#A80036" points="588.5,331.0938,578.5,335.0938,588.5,339.0938,584.5,335.0938" style="stroke: #A80036; stroke-width: 1.0;"/><line style="stroke: #A80036; stroke-width: 1.0;" x1="582.5" x2="734.5" y1="335.0938" y2="335.0938"/><polygon fill="#A80036" points="555.5,331.0938,565.5,335.0938,555.5,339.0938,559.5,335.0938" style="stroke: #A80036; stroke-width: 1.0;"/><line style="stroke: #A80036; stroke-width: 1.0;" x1="413" x2="561.5" y1="335.0938" y2="335.0938"/><polygon fill="#FBFB77" filter="url(#f1)" points="169,319.0938,169,359.0938,404,359.0938,404,329.0938,394,319.0938,169,319.0938" style="stroke: #A80036; stroke-width: 1.0;"/><line style="stroke: #A80036; stroke-width: 1.0;" x1="394" x2="394" y1="319.0938" y2="329.0938"/><line style="stroke: #A80036; stroke-width: 1.0;" x1="404" x2="394" y1="329.0938" y2="329.0938"/><text fill="#000000" font-family="sans-serif" font-size="13" lengthAdjust="spacingAndGlyphs" textLength="204" x="175" y="336.1606">n/2+1 players plus dealer agree</text><text fill="#000000" font-family="sans-serif" font-size="13" lengthAdjust="spacingAndGlyphs" textLength="214" x="175" y="351.2935">on payout vector and close game</text><polygon fill="#A80036" points="505,385.3594,515,389.3594,505,393.3594,509,389.3594" style="stroke: #A80036; stroke-width: 1.0;"/><line style="stroke: #A80036; stroke-width: 1.0;" x1="413" x2="511" y1="389.3594" y2="389.3594"/><text fill="#000000" font-family="sans-serif" font-size="13" lengthAdjust="spacingAndGlyphs" textLength="85" x="420" y="384.4263">CloseSession</text><polygon fill="#FBFB77" filter="url(#f1)" points="247,373.3594,247,398.3594,404,398.3594,404,383.3594,394,373.3594,247,373.3594" style="stroke: #A80036; stroke-width: 1.0;"/><line style="stroke: #A80036; stroke-width: 1.0;" x1="394" x2="394" y1="373.3594" y2="383.3594"/><line style="stroke: #A80036; stroke-width: 1.0;" x1="404" x2="394" y1="383.3594" y2="383.3594"/><text fill="#000000" font-family="sans-serif" font-size="13" lengthAdjust="spacingAndGlyphs" textLength="136" x="253" y="390.4263">dealer closes session</text><rect fill="#EEEEEE" filter="url(#f1)" height="3" style="stroke: #EEEEEE; stroke-width: 1.0;" width="632" x="337.5" y="428.0586"/><line style="stroke: #000000; stroke-width: 1.0;" x1="337.5" x2="969.5" y1="428.0586" y2="428.0586"/><line style="stroke: #000000; stroke-width: 1.0;" x1="337.5" x2="969.5" y1="431.0586" y2="431.0586"/><rect fill="#EEEEEE" filter="url(#f1)" height="23.1328" style="stroke: #000000; stroke-width: 2.0;" width="214" x="546.5" y="417.4922"/><text fill="#000000" font-family="sans-serif" font-size="13" font-weight="bold" lengthAdjust="spacingAndGlyphs" textLength="195" x="552.5" y="433.5591">When n/2 players time out</text><polygon fill="#A80036" points="505,467.625,515,471.625,505,475.625,509,471.625" style="stroke: #A80036; stroke-width: 1.0;"/><line style="stroke: #A80036; stroke-width: 1.0;" x1="413" x2="511" y1="471.625" y2="471.625"/><text fill="#000000" font-family="sans-serif" font-size="13" lengthAdjust="spacingAndGlyphs" textLength="84" x="420" y="466.6919">OpenSession</text><polygon fill="#FBFB77" filter="url(#f1)" points="181,455.625,181,495.625,404,495.625,404,465.625,394,455.625,181,455.625" style="stroke: #A80036; stroke-width: 1.0;"/><line style="stroke: #A80036; stroke-width: 1.0;" x1="394" x2="394" y1="455.625" y2="465.625"/><line style="stroke: #A80036; stroke-width: 1.0;" x1="404" x2="394" y1="465.625" y2="465.625"/><text fill="#000000" font-family="sans-serif" font-size="13" lengthAdjust="spacingAndGlyphs" textLength="202" x="187" y="472.6919">Dealer creates a transaction on</text><text fill="#000000" font-family="sans-serif" font-size="13" lengthAdjust="spacingAndGlyphs" textLength="199" x="187" y="487.8247">app chain to secure the payout</text><polygon fill="#A80036" points="583.5,541.8906,573.5,545.8906,583.5,549.8906,579.5,545.8906" style="stroke: #A80036; stroke-width: 1.0;"/><line style="stroke: #A80036; stroke-width: 1.0;" x1="577.5" x2="678.5" y1="545.8906" y2="545.8906"/><text fill="#000000" font-family="sans-serif" font-size="13" lengthAdjust="spacingAndGlyphs" textLength="31" x="589.5" y="540.9575">Fund</text><polygon fill="#A80036" points="588.5,541.8906,578.5,545.8906,588.5,549.8906,584.5,545.8906" style="stroke: #A80036; stroke-width: 1.0;"/><line style="stroke: #A80036; stroke-width: 1.0;" x1="582.5" x2="734.5" y1="545.8906" y2="545.8906"/><polygon fill="#FBFB77" filter="url(#f1)" points="740.5,529.8906,740.5,569.8906,960.5,569.8906,960.5,539.8906,950.5,529.8906,740.5,529.8906" style="stroke: #A80036; stroke-width: 1.0;"/><line style="stroke: #A80036; stroke-width: 1.0;" x1="950.5" x2="950.5" y1="529.8906" y2="539.8906"/><line style="stroke: #A80036; stroke-width: 1.0;" x1="960.5" x2="950.5" y1="539.8906" y2="539.8906"/><text fill="#000000" font-family="sans-serif" font-size="13" lengthAdjust="spacingAndGlyphs" textLength="199" x="746.5" y="546.9575">Players create a transaction on</text><text fill="#000000" font-family="sans-serif" font-size="13" lengthAdjust="spacingAndGlyphs" textLength="187" x="746.5" y="562.0903">value chain to fund the game</text><polygon fill="#A80036" points="424,616.1563,414,620.1563,424,624.1563,420,620.1563" style="stroke: #A80036; stroke-width: 1.0;"/><line style="stroke: #A80036; stroke-width: 1.0;" x1="418" x2="678.5" y1="620.1563" y2="620.1563"/><text fill="#000000" font-family="sans-serif" font-size="13" lengthAdjust="spacingAndGlyphs" textLength="63" x="430" y="615.2231">gameplay</text><polygon fill="#A80036" points="424,616.1563,414,620.1563,424,624.1563,420,620.1563" style="stroke: #A80036; stroke-width: 1.0;"/><line style="stroke: #A80036; stroke-width: 1.0;" x1="418" x2="734.5" y1="620.1563" y2="620.1563"/><polygon fill="#FBFB77" filter="url(#f1)" points="740.5,604.1563,740.5,629.1563,935.5,629.1563,935.5,614.1563,925.5,604.1563,740.5,604.1563" style="stroke: #A80036; stroke-width: 1.0;"/><line style="stroke: #A80036; stroke-width: 1.0;" x1="925.5" x2="925.5" y1="604.1563" y2="614.1563"/><line style="stroke: #A80036; stroke-width: 1.0;" x1="935.5" x2="925.5" y1="614.1563" y2="614.1563"/><text fill="#000000" font-family="sans-serif" font-size="13" lengthAdjust="spacingAndGlyphs" textLength="174" x="746.5" y="621.2231">Game is executed off chain</text><polygon fill="#A80036" points="538,655.2891,528,659.2891,538,663.2891,534,659.2891" style="stroke: #A80036; stroke-width: 1.0;"/><line style="stroke: #A80036; stroke-width: 1.0;" x1="532" x2="678.5" y1="659.2891" y2="659.2891"/><text fill="#000000" font-family="sans-serif" font-size="13" lengthAdjust="spacingAndGlyphs" textLength="64" x="544" y="654.356">PostClaim</text><polygon fill="#FBFB77" filter="url(#f1)" points="684.5,643.2891,684.5,668.2891,854.5,668.2891,854.5,653.2891,844.5,643.2891,684.5,643.2891" style="stroke: #A80036; stroke-width: 1.0;"/><line style="stroke: #A80036; stroke-width: 1.0;" x1="844.5" x2="844.5" y1="643.2891" y2="653.2891"/><line style="stroke: #A80036; stroke-width: 1.0;" x1="854.5" x2="844.5" y1="653.2891" y2="653.2891"/><text fill="#000000" font-family="sans-serif" font-size="13" lengthAdjust="spacingAndGlyphs" textLength="149" x="690.5" y="660.356">Player posts claim data</text><polygon fill="#A80036" points="538,694.4219,528,698.4219,538,702.4219,534,698.4219" style="stroke: #A80036; stroke-width: 1.0;"/><line style="stroke: #A80036; stroke-width: 1.0;" x1="532" x2="734.5" y1="698.4219" y2="698.4219"/><text fill="#000000" font-family="sans-serif" font-size="13" lengthAdjust="spacingAndGlyphs" textLength="64" x="544" y="693.4888">PostClaim</text><polygon fill="#A80036" points="505,694.4219,515,698.4219,505,702.4219,509,698.4219" style="stroke: #A80036; stroke-width: 1.0;"/><line style="stroke: #A80036; stroke-width: 1.0;" x1="413" x2="511" y1="698.4219" y2="698.4219"/><text fill="#000000" font-family="sans-serif" font-size="13" lengthAdjust="spacingAndGlyphs" textLength="64" x="420" y="693.4888">PostClaim</text><polygon fill="#FBFB77" filter="url(#f1)" points="5,682.4219,5,707.4219,404,707.4219,404,692.4219,394,682.4219,5,682.4219" style="stroke: #A80036; stroke-width: 1.0;"/><line style="stroke: #A80036; stroke-width: 1.0;" x1="394" x2="394" y1="682.4219" y2="692.4219"/><line style="stroke: #A80036; stroke-width: 1.0;" x1="404" x2="394" y1="692.4219" y2="692.4219"/><text fill="#000000" font-family="sans-serif" font-size="13" lengthAdjust="spacingAndGlyphs" textLength="378" x="11" y="699.4888">Everyone posts claim data, best claim is selected by server</text><polygon fill="#A80036" points="555.5,733.5547,565.5,737.5547,555.5,741.5547,559.5,737.5547" style="stroke: #A80036; stroke-width: 1.0;"/><line style="stroke: #A80036; stroke-width: 1.0;" x1="362.5" x2="561.5" y1="737.5547" y2="737.5547"/><text fill="#000000" font-family="sans-serif" font-size="13" lengthAdjust="spacingAndGlyphs" textLength="52" x="369.5" y="732.6216">notarize</text><polygon fill="#A80036" points="588.5,762.6875,578.5,766.6875,588.5,770.6875,584.5,766.6875" style="stroke: #A80036; stroke-width: 1.0;"/><line style="stroke: #A80036; stroke-width: 1.0;" x1="582.5" x2="678.5" y1="766.6875" y2="766.6875"/><text fill="#000000" font-family="sans-serif" font-size="13" lengthAdjust="spacingAndGlyphs" textLength="80" x="594.5" y="761.7544">ClaimPayout</text><polygon fill="#A80036" points="588.5,762.6875,578.5,766.6875,588.5,770.6875,584.5,766.6875" style="stroke: #A80036; stroke-width: 1.0;"/><line style="stroke: #A80036; stroke-width: 1.0;" x1="582.5" x2="734.5" y1="766.6875" y2="766.6875"/><text fill="#000000" font-family="sans-serif" font-size="13" lengthAdjust="spacingAndGlyphs" textLength="80" x="594.5" y="761.7544">ClaimPayout</text><polygon fill="#A80036" points="555.5,762.6875,565.5,766.6875,555.5,770.6875,559.5,766.6875" style="stroke: #A80036; stroke-width: 1.0;"/><line style="stroke: #A80036; stroke-width: 1.0;" x1="413" x2="561.5" y1="766.6875" y2="766.6875"/><text fill="#000000" font-family="sans-serif" font-size="13" lengthAdjust="spacingAndGlyphs" textLength="80" x="420" y="761.7544">ClaimPayout</text><polygon fill="#FBFB77" filter="url(#f1)" points="285,750.6875,285,775.6875,404,775.6875,404,760.6875,394,750.6875,285,750.6875" style="stroke: #A80036; stroke-width: 1.0;"/><line style="stroke: #A80036; stroke-width: 1.0;" x1="394" x2="394" y1="750.6875" y2="760.6875"/><line style="stroke: #A80036; stroke-width: 1.0;" x1="404" x2="394" y1="760.6875" y2="760.6875"/><text fill="#000000" font-family="sans-serif" font-size="13" lengthAdjust="spacingAndGlyphs" textLength="98" x="291" y="767.7544">Everyone posts</text></g></svg>