<?xml version="1.0" encoding="UTF-8" standalone="no"?>
<!DOCTYPE svg PUBLIC "-//W3C//DTD SVG 1.1//EN"
 "http://www.w3.org/Graphics/SVG/1.1/DTD/svg11.dtd">
<!-- Generated by graphviz version 2.38.0 (20140413.2041)
 -->
<!-- Title: Txs Pages: 1 -->
<svg width="292pt" height="277pt"
 viewBox="0.00 0.00 291.84 277.00" xmlns="http://www.w3.org/2000/svg" xmlns:xlink="http://www.w3.org/1999/xlink">
<g id="graph0" class="graph" transform="scale(1 1) rotate(0) translate(4 273)">
<title>Txs</title>
<polygon fill="white" stroke="none" points="-4,4 -4,-273 287.837,-273 287.837,4 -4,4"/>
<!-- FundOffChain -->
<g id="node1" class="node"><title>FundOffChain</title>
<polygon fill="none" stroke="green" points="194.887,-178 159.34,-196 88.2468,-196 52.7001,-178 88.2468,-160 159.34,-160 194.887,-178"/>
<text text-anchor="middle" x="123.793" y="-174.3" font-family="Times,serif" font-size="14.00">FundOffChain</text>
</g>
<!-- PlayerPayout -->
<g id="node2" class="node"><title>PlayerPayout</title>
<polygon fill="none" stroke="green" points="133.381,-18 100.087,-36 33.4997,-36 0.205864,-18 33.4997,-2.4869e-14 100.087,-0 133.381,-18"/>
<text text-anchor="middle" x="66.7935" y="-14.3" font-family="Times,serif" font-size="14.00">PlayerPayout</text>
</g>
<!-- FundOffChain&#45;&gt;PlayerPayout -->
<g id="edge2" class="edge"><title>FundOffChain&#45;&gt;PlayerPayout</title>
<path fill="none" stroke="black" d="M117.585,-159.79C107.691,-132.366 88.2689,-78.5284 76.5182,-45.9561"/>
<polygon fill="black" stroke="black" points="79.6802,-44.4072 72.9944,-36.1883 73.0956,-46.7827 79.6802,-44.4072"/>
<text text-anchor="middle" x="91.7615" y="-101.711" font-family="Times,serif" font-size="14.00">2</text>
</g>
<!-- ClaimPayout -->
<g id="node3" class="node"><title>ClaimPayout</title>
<polygon fill="none" stroke="green" points="283.88,-18 250.837,-36 184.75,-36 151.707,-18 184.75,-2.4869e-14 250.837,-0 283.88,-18"/>
<text text-anchor="middle" x="217.793" y="-14.3" font-family="Times,serif" font-size="14.00">ClaimPayout</text>
</g>
<!-- FundOffChain&#45;&gt;ClaimPayout -->
<g id="edge4" class="edge"><title>FundOffChain&#45;&gt;ClaimPayout</title>
<path fill="none" stroke="purple" d="M125.098,-159.665C127.167,-140.698 132.449,-109.941 145.793,-87 155.694,-69.9794 171.146,-54.5787 185.201,-42.7548"/>
<polygon fill="purple" stroke="purple" points="187.697,-45.2368 193.262,-36.2211 183.289,-39.7987 187.697,-45.2368"/>
<text text-anchor="middle" x="149.293" y="-101.3" font-family="Times,serif" font-size="14.00">4</text>
</g>
<!-- PostClaim -->
<g id="node5" class="node"><title>PostClaim</title>
<polygon fill="none" stroke="black" points="273.366,-105 245.58,-123 190.007,-123 162.221,-105 190.007,-87 245.58,-87 273.366,-105"/>
<text text-anchor="middle" x="217.793" y="-101.3" font-family="Times,serif" font-size="14.00">PostClaim</text>
</g>
<!-- FundOffChain&#45;&gt;PostClaim -->
<g id="edge6" class="edge"><title>FundOffChain&#45;&gt;PostClaim</title>
<path fill="none" stroke="white" d="M146.548,-159.813C158.672,-150.656 173.759,-139.26 186.925,-129.316"/>
<polygon fill="white" stroke="white" points="189.378,-131.849 195.248,-123.029 185.159,-126.263 189.378,-131.849"/>
</g>
<!-- PlayPoker -->
<g id="node4" class="node"><title>PlayPoker</title>
<polygon fill="none" stroke="black" points="251.864,-251 224.829,-269 170.758,-269 143.723,-251 170.758,-233 224.829,-233 251.864,-251"/>
<text text-anchor="middle" x="197.793" y="-247.3" font-family="Times,serif" font-size="14.00">PlayPoker</text>
</g>
<!-- PlayPoker&#45;&gt;FundOffChain -->
<g id="edge1" class="edge"><title>PlayPoker&#45;&gt;FundOffChain</title>
<path fill="none" stroke="black" stroke-dasharray="1,5" d="M179.88,-232.813C170.609,-223.917 159.136,-212.909 148.987,-203.172"/>
<polygon fill="black" stroke="black" points="151.181,-200.427 141.542,-196.029 146.335,-205.478 151.181,-200.427"/>
<text text-anchor="middle" x="157.027" y="-218.045" font-family="Times,serif" font-size="14.00">1</text>
</g>
<!-- PlayPoker&#45;&gt;PostClaim -->
<g id="edge3" class="edge"><title>PlayPoker&#45;&gt;PostClaim</title>
<path fill="none" stroke="purple" d="M200.166,-232.916C203.594,-208.233 209.967,-162.351 214.038,-133.041"/>
<polygon fill="purple" stroke="purple" points="217.515,-133.448 215.424,-123.062 210.581,-132.485 217.515,-133.448"/>
<text text-anchor="middle" x="213.293" y="-174.3" font-family="Times,serif" font-size="14.00">3</text>
</g>
<!-- PostClaim&#45;&gt;ClaimPayout -->
<g id="edge5" class="edge"><title>PostClaim&#45;&gt;ClaimPayout</title>
<path fill="none" stroke="purple" stroke-dasharray="1,5" d="M217.793,-86.799C217.793,-75.1626 217.793,-59.5479 217.793,-46.2368"/>
<polygon fill="purple" stroke="purple" points="221.294,-46.1754 217.793,-36.1754 214.294,-46.1755 221.294,-46.1754"/>
<text text-anchor="middle" x="221.293" y="-57.8" font-family="Times,serif" font-size="14.00">5</text>
</g>
</g>
</svg>
