<?xml version="1.0" encoding="UTF-8" standalone="no"?>
<!DOCTYPE svg PUBLIC "-//W3C//DTD SVG 1.1//EN"
 "http://www.w3.org/Graphics/SVG/1.1/DTD/svg11.dtd">
<!-- Generated by graphviz version 2.38.0 (20140413.2041)
 -->
<!-- Title: Txs Pages: 1 -->
<svg width="296pt" height="332pt"
 viewBox="0.00 0.00 296.34 332.00" xmlns="http://www.w3.org/2000/svg" xmlns:xlink="http://www.w3.org/1999/xlink">
<g id="graph0" class="graph" transform="scale(1 1) rotate(0) translate(4 328)">
<title>Txs</title>
<polygon fill="white" stroke="none" points="-4,4 -4,-328 292.339,-328 292.339,4 -4,4"/>
<!-- Session -->
<g id="node1" class="node"><title>Session</title>
<polygon fill="none" stroke="black" points="239.35,-306 217.572,-324 174.015,-324 152.237,-306 174.015,-288 217.572,-288 239.35,-306"/>
<text text-anchor="middle" x="195.793" y="-302.3" font-family="Times,serif" font-size="14.00">Session</text>
</g>
<!-- Fund -->
<g id="node2" class="node"><title>Fund</title>
<polygon fill="none" stroke="black" points="156.837,-234 140.315,-252 107.272,-252 90.7505,-234 107.272,-216 140.315,-216 156.837,-234"/>
<text text-anchor="middle" x="123.793" y="-230.3" font-family="Times,serif" font-size="14.00">Fund</text>
</g>
<!-- Session&#45;&gt;Fund -->
<g id="edge1" class="edge"><title>Session&#45;&gt;Fund</title>
<path fill="none" stroke="black" stroke-dasharray="1,5" d="M177.996,-287.697C168.97,-278.921 157.872,-268.132 148.074,-258.606"/>
<polygon fill="black" stroke="black" points="150.5,-256.084 140.891,-251.622 145.621,-261.103 150.5,-256.084"/>
<text text-anchor="middle" x="110.467" y="-273.483" font-family="Times,serif" font-size="14.00">(soft dependency)</text>
</g>
<!-- PostClaim -->
<g id="node5" class="node"><title>PostClaim</title>
<polygon fill="none" stroke="black" points="251.366,-162 223.58,-180 168.007,-180 140.221,-162 168.007,-144 223.58,-144 251.366,-162"/>
<text text-anchor="middle" x="195.793" y="-158.3" font-family="Times,serif" font-size="14.00">PostClaim</text>
</g>
<!-- Session&#45;&gt;PostClaim -->
<g id="edge4" class="edge"><title>Session&#45;&gt;PostClaim</title>
<path fill="none" stroke="purple" d="M195.793,-287.871C195.793,-263.67 195.793,-219.211 195.793,-190.393"/>
<polygon fill="purple" stroke="purple" points="199.294,-190.189 195.793,-180.189 192.294,-190.189 199.294,-190.189"/>
</g>
<!-- ResolveClaim -->
<g id="node6" class="node"><title>ResolveClaim</title>
<polygon fill="none" stroke="black" points="288.385,-90 253.089,-108 182.498,-108 147.202,-90 182.498,-72 253.089,-72 288.385,-90"/>
<text text-anchor="middle" x="217.793" y="-86.3" font-family="Times,serif" font-size="14.00">ResolveClaim</text>
</g>
<!-- Session&#45;&gt;ResolveClaim -->
<g id="edge5" class="edge"><title>Session&#45;&gt;ResolveClaim</title>
<path fill="none" stroke="purple" d="M208.145,-287.865C223.986,-264.725 250.629,-221.581 260.793,-180 264.593,-164.458 266.141,-159.08 260.793,-144 257.132,-133.675 250.507,-123.896 243.536,-115.614"/>
<polygon fill="purple" stroke="purple" points="246.123,-113.256 236.833,-108.163 240.92,-117.938 246.123,-113.256"/>
</g>
<!-- PlayerPayout -->
<g id="node3" class="node"><title>PlayerPayout</title>
<polygon fill="none" stroke="black" points="133.381,-18 100.087,-36 33.4997,-36 0.205864,-18 33.4997,-2.4869e-14 100.087,-0 133.381,-18"/>
<text text-anchor="middle" x="66.7935" y="-14.3" font-family="Times,serif" font-size="14.00">PlayerPayout</text>
</g>
<!-- Fund&#45;&gt;PlayerPayout -->
<g id="edge2" class="edge"><title>Fund&#45;&gt;PlayerPayout</title>
<path fill="none" stroke="black" d="M113.918,-215.83C108.459,-205.69 101.959,-192.44 97.7935,-180 82.526,-134.41 73.9102,-78.8924 69.8149,-46.3942"/>
<polygon fill="black" stroke="black" points="73.27,-45.8113 68.5963,-36.3031 66.3205,-46.6506 73.27,-45.8113"/>
<text text-anchor="middle" x="48.6857" y="-131.763" font-family="Times,serif" font-size="14.00">(happy path)</text>
</g>
<!-- ClaimPayout -->
<g id="node4" class="node"><title>ClaimPayout</title>
<polygon fill="none" stroke="black" points="283.88,-18 250.837,-36 184.75,-36 151.707,-18 184.75,-2.4869e-14 250.837,-0 283.88,-18"/>
<text text-anchor="middle" x="217.793" y="-14.3" font-family="Times,serif" font-size="14.00">ClaimPayout</text>
</g>
<!-- Fund&#45;&gt;ClaimPayout -->
<g id="edge3" class="edge"><title>Fund&#45;&gt;ClaimPayout</title>
<path fill="none" stroke="purple" d="M120.628,-215.524C115.919,-184.243 110.326,-117.687 137.793,-72 145.962,-58.4131 159.111,-47.6041 172.41,-39.3851"/>
<polygon fill="purple" stroke="purple" points="174.21,-42.387 181.119,-34.3549 170.709,-36.3253 174.21,-42.387"/>
</g>
<!-- Fund&#45;&gt;PostClaim -->
<g id="edge8" class="edge"><title>Fund&#45;&gt;PostClaim</title>
<path fill="none" stroke="white" d="M140.856,-216.411C149.804,-207.712 160.933,-196.893 170.83,-187.271"/>
<polygon fill="white" stroke="white" points="173.371,-189.681 178.101,-180.201 168.491,-184.662 173.371,-189.681"/>
</g>
<!-- PostClaim&#45;&gt;ResolveClaim -->
<g id="edge7" class="edge"><title>PostClaim&#45;&gt;ResolveClaim</title>
<path fill="none" stroke="purple" stroke-dasharray="1,5" d="M201.232,-143.697C203.683,-135.898 206.634,-126.509 209.361,-117.829"/>
<polygon fill="purple" stroke="purple" points="212.758,-118.694 212.418,-108.104 206.081,-116.595 212.758,-118.694"/>
</g>
<!-- ResolveClaim&#45;&gt;ClaimPayout -->
<g id="edge6" class="edge"><title>ResolveClaim&#45;&gt;ClaimPayout</title>
<path fill="none" stroke="purple" stroke-dasharray="1,5" d="M217.793,-71.6966C217.793,-63.9827 217.793,-54.7125 217.793,-46.1124"/>
<polygon fill="purple" stroke="purple" points="221.294,-46.1043 217.793,-36.1043 214.294,-46.1044 221.294,-46.1043"/>
</g>
</g>
</svg>
