<?xml version="1.0" encoding="UTF-8" standalone="no"?>
<!DOCTYPE svg PUBLIC "-//W3C//DTD SVG 1.1//EN"
 "http://www.w3.org/Graphics/SVG/1.1/DTD/svg11.dtd">
<!-- Generated by graphviz version 2.38.0 (20140413.2041)
 -->
<!-- Title: Txs Pages: 1 -->
<svg width="296pt" height="378pt"
 viewBox="0.00 0.00 296.34 378.00" xmlns="http://www.w3.org/2000/svg" xmlns:xlink="http://www.w3.org/1999/xlink">
<g id="graph0" class="graph" transform="scale(1 1) rotate(0) translate(4 374)">
<title>Txs</title>
<polygon fill="white" stroke="none" points="-4,4 -4,-374 292.339,-374 292.339,4 -4,4"/>
<!-- FundOffChain -->
<g id="node1" class="node"><title>FundOffChain</title>
<polygon fill="none" stroke="green" points="182.887,-279 147.34,-297 76.2468,-297 40.7001,-279 76.2468,-261 147.34,-261 182.887,-279"/>
<text text-anchor="middle" x="111.793" y="-275.3" font-family="Times,serif" font-size="14.00">FundOffChain</text>
</g>
<!-- PlayerPayout -->
<g id="node2" class="node"><title>PlayerPayout</title>
<polygon fill="none" stroke="green" points="133.381,-18 100.087,-36 33.4997,-36 0.205864,-18 33.4997,-2.4869e-14 100.087,-0 133.381,-18"/>
<text text-anchor="middle" x="66.7935" y="-14.3" font-family="Times,serif" font-size="14.00">PlayerPayout</text>
</g>
<!-- FundOffChain&#45;&gt;PlayerPayout -->
<g id="edge2" class="edge"><title>FundOffChain&#45;&gt;PlayerPayout</title>
<path fill="none" stroke="black" d="M103.963,-260.835C101.675,-255.245 99.3691,-248.947 97.7935,-243 79.3856,-173.527 71.4523,-88.8687 68.426,-46.2688"/>
<polygon fill="black" stroke="black" points="71.9079,-45.8799 67.7436,-36.1378 64.9237,-46.3504 71.9079,-45.8799"/>
<text text-anchor="middle" x="75.8637" y="-152.954" font-family="Times,serif" font-size="14.00">2</text>
</g>
<!-- ClaimPayout -->
<g id="node3" class="node"><title>ClaimPayout</title>
<polygon fill="none" stroke="green" points="283.88,-18 250.837,-36 184.75,-36 151.707,-18 184.75,-2.4869e-14 250.837,-0 283.88,-18"/>
<text text-anchor="middle" x="217.793" y="-14.3" font-family="Times,serif" font-size="14.00">ClaimPayout</text>
</g>
<!-- FundOffChain&#45;&gt;ClaimPayout -->
<g id="edge6" class="edge"><title>FundOffChain&#45;&gt;ClaimPayout</title>
<path fill="none" stroke="purple" d="M110.219,-260.924C107.791,-225.931 106.301,-144.538 137.793,-87 147.689,-68.9214 164.448,-53.5479 180.078,-42.0164"/>
<polygon fill="purple" stroke="purple" points="182.438,-44.6351 188.594,-36.0125 178.404,-38.9138 182.438,-44.6351"/>
<text text-anchor="middle" x="122.293" y="-144.8" font-family="Times,serif" font-size="14.00">6</text>
</g>
<!-- PostClaim -->
<g id="node5" class="node"><title>PostClaim</title>
<polygon fill="none" stroke="black" points="251.366,-192 223.58,-210 168.007,-210 140.221,-192 168.007,-174 223.58,-174 251.366,-192"/>
<text text-anchor="middle" x="195.793" y="-188.3" font-family="Times,serif" font-size="14.00">PostClaim</text>
</g>
<!-- FundOffChain&#45;&gt;PostClaim -->
<g id="edge8" class="edge"><title>FundOffChain&#45;&gt;PostClaim</title>
<path fill="none" stroke="white" d="M128.792,-260.799C141.089,-248.356 157.88,-231.364 171.577,-217.504"/>
<polygon fill="white" stroke="white" points="174.28,-219.748 178.82,-210.175 169.302,-214.828 174.28,-219.748"/>
</g>
<!-- PlayPoker -->
<g id="node4" class="node"><title>PlayPoker</title>
<polygon fill="none" stroke="black" points="272.864,-352 245.829,-370 191.758,-370 164.723,-352 191.758,-334 245.829,-334 272.864,-352"/>
<text text-anchor="middle" x="218.793" y="-348.3" font-family="Times,serif" font-size="14.00">PlayPoker</text>
</g>
<!-- PlayPoker&#45;&gt;FundOffChain -->
<g id="edge1" class="edge"><title>PlayPoker&#45;&gt;FundOffChain</title>
<path fill="none" stroke="black" stroke-dasharray="1,5" d="M193.164,-333.994C179.107,-324.666 161.487,-312.974 146.241,-302.858"/>
<polygon fill="black" stroke="black" points="147.852,-299.726 137.584,-297.114 143.982,-305.559 147.852,-299.726"/>
<text text-anchor="middle" x="161.72" y="-319.251" font-family="Times,serif" font-size="14.00">1</text>
</g>
<!-- PlayPoker&#45;&gt;PostClaim -->
<g id="edge3" class="edge"><title>PlayPoker&#45;&gt;PostClaim</title>
<path fill="none" stroke="purple" d="M216.288,-333.79C212.313,-306.485 204.527,-252.994 199.779,-220.38"/>
<polygon fill="purple" stroke="purple" points="203.2,-219.58 198.296,-210.188 196.273,-220.588 203.2,-219.58"/>
<text text-anchor="middle" x="215.293" y="-275.3" font-family="Times,serif" font-size="14.00">3</text>
</g>
<!-- ResolveClaim -->
<g id="node6" class="node"><title>ResolveClaim</title>
<polygon fill="none" stroke="black" points="288.385,-105 253.089,-123 182.498,-123 147.202,-105 182.498,-87 253.089,-87 288.385,-105"/>
<text text-anchor="middle" x="217.793" y="-101.3" font-family="Times,serif" font-size="14.00">ResolveClaim</text>
</g>
<!-- PlayPoker&#45;&gt;ResolveClaim -->
<g id="edge4" class="edge"><title>PlayPoker&#45;&gt;ResolveClaim</title>
<path fill="none" stroke="purple" d="M228.787,-333.768C245.936,-301.951 277.576,-231.941 260.793,-174 256.353,-158.67 247.31,-143.477 238.657,-131.354"/>
<polygon fill="purple" stroke="purple" points="241.287,-129.026 232.497,-123.11 235.68,-133.216 241.287,-129.026"/>
<text text-anchor="middle" x="267.293" y="-231.8" font-family="Times,serif" font-size="14.00">4</text>
</g>
<!-- PostClaim&#45;&gt;ResolveClaim -->
<g id="edge5" class="edge"><title>PostClaim&#45;&gt;ResolveClaim</title>
<path fill="none" stroke="purple" stroke-dasharray="1,5" d="M200.246,-173.799C203.257,-162.163 207.299,-146.548 210.744,-133.237"/>
<polygon fill="purple" stroke="purple" points="214.231,-133.733 213.348,-123.175 207.454,-131.979 214.231,-133.733"/>
<text text-anchor="middle" x="212.293" y="-144.8" font-family="Times,serif" font-size="14.00">5</text>
</g>
<!-- ResolveClaim&#45;&gt;ClaimPayout -->
<g id="edge7" class="edge"><title>ResolveClaim&#45;&gt;ClaimPayout</title>
<path fill="none" stroke="purple" stroke-dasharray="1,5" d="M217.793,-86.799C217.793,-75.1626 217.793,-59.5479 217.793,-46.2368"/>
<polygon fill="purple" stroke="purple" points="221.294,-46.1754 217.793,-36.1754 214.294,-46.1755 221.294,-46.1754"/>
<text text-anchor="middle" x="221.293" y="-57.8" font-family="Times,serif" font-size="14.00">7</text>
</g>
</g>
</svg>
