<?xml version="1.0" encoding="UTF-8" standalone="no"?>
<!DOCTYPE svg PUBLIC "-//W3C//DTD SVG 1.1//EN"
 "http://www.w3.org/Graphics/SVG/1.1/DTD/svg11.dtd">
<!-- Generated by graphviz version 2.38.0 (20140413.2041)
 -->
<!-- Title: Txs Pages: 1 -->
<svg width="296pt" height="378pt"
 viewBox="0.00 0.00 296.34 378.00" xmlns="http://www.w3.org/2000/svg" xmlns:xlink="http://www.w3.org/1999/xlink">
<g id="graph0" class="graph" transform="scale(1 1) rotate(0) translate(4 374)">
<title>Txs</title>
<polygon fill="white" stroke="none" points="-4,4 -4,-374 292.339,-374 292.339,4 -4,4"/>
<!-- Fund -->
<g id="node1" class="node"><title>Fund</title>
<polygon fill="none" stroke="green" points="151.837,-279 135.315,-297 102.272,-297 85.7505,-279 102.272,-261 135.315,-261 151.837,-279"/>
<text text-anchor="middle" x="118.793" y="-275.3" font-family="Times,serif" font-size="14.00">Fund</text>
</g>
<!-- PlayerPayout -->
<g id="node2" class="node"><title>PlayerPayout</title>
<polygon fill="none" stroke="green" points="133.381,-18 100.087,-36 33.4997,-36 0.205864,-18 33.4997,-2.4869e-14 100.087,-0 133.381,-18"/>
<text text-anchor="middle" x="66.7935" y="-14.3" font-family="Times,serif" font-size="14.00">PlayerPayout</text>
</g>
<!-- Fund&#45;&gt;PlayerPayout -->
<g id="edge2" class="edge"><title>Fund&#45;&gt;PlayerPayout</title>
<path fill="none" stroke="black" d="M106.65,-260.882C103.283,-255.398 99.9613,-249.148 97.7935,-243 73.8355,-175.049 68.2961,-89.4038 67.0799,-46.3564"/>
<polygon fill="black" stroke="black" points="70.5738,-46.0421 66.8513,-36.1228 63.5756,-46.1985 70.5738,-46.0421"/>
<text text-anchor="middle" x="72.4311" y="-153.767" font-family="Times,serif" font-size="14.00">2</text>
</g>
<!-- ClaimPayout -->
<g id="node3" class="node"><title>ClaimPayout</title>
<polygon fill="none" stroke="green" points="283.88,-18 250.837,-36 184.75,-36 151.707,-18 184.75,-2.4869e-14 250.837,-0 283.88,-18"/>
<text text-anchor="middle" x="217.793" y="-14.3" font-family="Times,serif" font-size="14.00">ClaimPayout</text>
</g>
<!-- Fund&#45;&gt;ClaimPayout -->
<g id="edge6" class="edge"><title>Fund&#45;&gt;ClaimPayout</title>
<path fill="none" stroke="purple" d="M116.439,-260.976C112.444,-226.078 107.475,-144.851 137.793,-87 147.289,-68.8818 163.832,-53.5815 179.419,-42.1101"/>
<polygon fill="purple" stroke="purple" points="181.755,-44.7468 187.93,-36.1374 177.734,-39.017 181.755,-44.7468"/>
<text text-anchor="middle" x="123.293" y="-144.8" font-family="Times,serif" font-size="14.00">6</text>
</g>
<!-- PostClaim -->
<g id="node5" class="node"><title>PostClaim</title>
<polygon fill="none" stroke="black" points="251.366,-192 223.58,-210 168.007,-210 140.221,-192 168.007,-174 223.58,-174 251.366,-192"/>
<text text-anchor="middle" x="195.793" y="-188.3" font-family="Times,serif" font-size="14.00">PostClaim</text>
</g>
<!-- Fund&#45;&gt;PostClaim -->
<g id="edge8" class="edge"><title>Fund&#45;&gt;PostClaim</title>
<path fill="none" stroke="white" d="M134.376,-260.799C145.543,-248.471 160.755,-231.679 173.246,-217.89"/>
<polygon fill="white" stroke="white" points="176.115,-219.936 180.235,-210.175 170.927,-215.237 176.115,-219.936"/>
</g>
<!-- Session -->
<g id="node4" class="node"><title>Session</title>
<polygon fill="none" stroke="black" points="239.35,-352 217.572,-370 174.015,-370 152.237,-352 174.015,-334 217.572,-334 239.35,-352"/>
<text text-anchor="middle" x="195.793" y="-348.3" font-family="Times,serif" font-size="14.00">Session</text>
</g>
<!-- Session&#45;&gt;Fund -->
<g id="edge1" class="edge"><title>Session&#45;&gt;Fund</title>
<path fill="none" stroke="black" stroke-dasharray="1,5" d="M177.154,-333.813C167.126,-324.566 154.622,-313.036 143.763,-303.024"/>
<polygon fill="black" stroke="black" points="145.93,-300.261 136.206,-296.056 141.185,-305.408 145.93,-300.261"/>
<text text-anchor="middle" x="153.226" y="-318.776" font-family="Times,serif" font-size="14.00">1</text>
</g>
<!-- Session&#45;&gt;PostClaim -->
<g id="edge3" class="edge"><title>Session&#45;&gt;PostClaim</title>
<path fill="none" stroke="purple" d="M195.793,-333.79C195.793,-306.485 195.793,-252.994 195.793,-220.38"/>
<polygon fill="purple" stroke="purple" points="199.294,-220.188 195.793,-210.188 192.294,-220.188 199.294,-220.188"/>
<text text-anchor="middle" x="199.293" y="-275.3" font-family="Times,serif" font-size="14.00">3</text>
</g>
<!-- ResolveClaim -->
<g id="node6" class="node"><title>ResolveClaim</title>
<polygon fill="none" stroke="black" points="288.385,-105 253.089,-123 182.498,-123 147.202,-105 182.498,-87 253.089,-87 288.385,-105"/>
<text text-anchor="middle" x="217.793" y="-101.3" font-family="Times,serif" font-size="14.00">ResolveClaim</text>
</g>
<!-- Session&#45;&gt;ResolveClaim -->
<g id="edge4" class="edge"><title>Session&#45;&gt;ResolveClaim</title>
<path fill="none" stroke="purple" d="M206.829,-333.628C222.485,-307.847 250.396,-257.392 260.793,-210 264.222,-194.372 265.245,-189.368 260.793,-174 256.353,-158.67 247.31,-143.477 238.657,-131.354"/>
<polygon fill="purple" stroke="purple" points="241.287,-129.026 232.497,-123.11 235.68,-133.216 241.287,-129.026"/>
<text text-anchor="middle" x="259.293" y="-231.8" font-family="Times,serif" font-size="14.00">4</text>
</g>
<!-- PostClaim&#45;&gt;ResolveClaim -->
<g id="edge5" class="edge"><title>PostClaim&#45;&gt;ResolveClaim</title>
<path fill="none" stroke="purple" stroke-dasharray="1,5" d="M200.246,-173.799C203.257,-162.163 207.299,-146.548 210.744,-133.237"/>
<polygon fill="purple" stroke="purple" points="214.231,-133.733 213.348,-123.175 207.454,-131.979 214.231,-133.733"/>
<text text-anchor="middle" x="212.293" y="-144.8" font-family="Times,serif" font-size="14.00">5</text>
</g>
<!-- ResolveClaim&#45;&gt;ClaimPayout -->
<g id="edge7" class="edge"><title>ResolveClaim&#45;&gt;ClaimPayout</title>
<path fill="none" stroke="purple" stroke-dasharray="1,5" d="M217.793,-86.799C217.793,-75.1626 217.793,-59.5479 217.793,-46.2368"/>
<polygon fill="purple" stroke="purple" points="221.294,-46.1754 217.793,-36.1754 214.294,-46.1755 221.294,-46.1754"/>
<text text-anchor="middle" x="221.293" y="-57.8" font-family="Times,serif" font-size="14.00">7</text>
</g>
</g>
</svg>
